<?xml version="1.0" encoding="UTF-8"?>
<svg id="SVGRoot" width="500" height="178.44" version="1.1" viewBox="0 0 500 178.44363" xmlns="http://www.w3.org/2000/svg" xmlns:cc="http://creativecommons.org/ns#" xmlns:dc="http://purl.org/dc/elements/1.1/" xmlns:rdf="http://www.w3.org/1999/02/22-rdf-syntax-ns#" xmlns:xlink="http://www.w3.org/1999/xlink" fill="#f5e6c8"><defs><linearGradient id="SVGID_3_" x1="-462.16" x2="-457.45" y1="707.37" y2="707.37" gradientTransform="matrix(1.1089 37.226 37.226 -1.1089 -25727 18211)" gradientUnits="userSpaceOnUse"><stop stop-color="#C8C9CA" offset="0"/><stop stop-color="#C9CACB" offset=".0029213"/><stop stop-color="#E1E1E2" offset=".088324"/><stop stop-color="#F2F2F2" offset=".1787"/><stop stop-color="#FCFCFC" offset=".2774"/><stop stop-color="#fff" offset=".3989"/><stop stop-color="#fff" offset="1"/></linearGradient><clipPath id="SVGID_2_"><use width="100%" height="100%" xlink:href="#SVGID_1_"/></clipPath><linearGradient id="SVGID_6_" x1="-467.7" x2="-462.98" y1="692.6" y2="692.6" gradientTransform="matrix(-37.53 15.618 15.618 37.53 -28142 -18410)" gradientUnits="userSpaceOnUse"><stop stop-color="#C8C9CA" offset="0"/><stop stop-color="#C9CACB" offset=".0029213"/><stop stop-color="#E1E1E2" offset=".088324"/><stop stop-color="#F2F2F2" offset=".1787"/><stop stop-color="#FCFCFC" offset=".2774"/><stop stop-color="#fff" offset=".3989"/><stop stop-color="#FCFCFC" offset=".5809"/><stop stop-color="#F2F2F2" offset=".7301"/><stop stop-color="#E1E1E2" offset=".8673"/><stop stop-color="#C9CACB" offset=".9973"/><stop stop-color="#C8C9CA" offset="1"/></linearGradient><clipPath id="SVGID_5_"><use width="100%" height="100%" xlink:href="#SVGID_4_"/></clipPath></defs><metadata><rdf:RDF><cc:Work rdf:about=""><dc:format>image/svg+xml</dc:format><dc:type rdf:resource="http://purl.org/dc/dcmitype/StillImage"/><dc:title/></cc:Work></rdf:RDF></metadata><g transform="translate(-77.199 -239.11)"><path class="st0" d="m117.54 371.94h5.6916c-1.2826-3.0462-2.3247-6.2527-3.1264-9.5394-10.181-39.521 13.708-79.682 53.148-89.783 33.268-8.4973 65.253 6.5734 80.484 35.192l10.582-3.7677c-14.109-38.719-55.473-61.245-96.276-50.824-43.449 11.063-69.582 55.233-58.519 98.681 1.8438 7.2147 4.5693 13.868 8.0163 20.041" fill="#e2231a" stroke-width=".80163"/><path class="st0" d="m84.355 371.94h22.606c-3.0462-5.8519-5.4511-12.105-7.1345-18.758-11.944-46.735 13.948-95.795 64.772-107.66 12.425-2.8859 25.813-2.4851 37.997-0.0802 0.80164 0.16033 1.4429-1.6834 0-2.2446-16.674-5.3709-34.951-5.2908-53.228-0.6413-51.224 13.067-82.248 65.333-69.181 116.72 1.1223 4.409 2.5652 8.5775 4.1685 12.666" fill="#e2231a" stroke-width=".80163"/><polygon class="st1" transform="matrix(.80163 0 0 .80163 64.234 62.346)" points="16.3 390.9 11.2 220.6 173.7 215.8 178.7 386" clip-path="url(#SVGID_2_)" fill="url(#SVGID_3_)"/><path class="st0" d="m107.04 371.94h-22.686c-1.6834-4.0883-3.0462-8.2568-4.1685-12.586-2.0842-8.0163-3.0462-16.113-2.966-23.969 0.08016-42.807 28.939-81.767 72.307-92.829 8.818-2.2446 17.716-3.447 26.374-3.447 9.2188 0 18.277 1.3628 26.855 4.0883 0.64131 0.24049 0.8818 0.72147 0.8818 1.1223 0 0.56115-0.32066 1.1223-0.80164 1.1223h-0.0802c-6.3329-1.2826-12.986-2.0041-19.64-2.0041-6.1726 0-12.345 0.64131-18.357 2.0041-42.487 9.9403-67.498 45.853-67.658 84.652 0 7.6155 0.8818 15.311 2.8859 23.007 1.6033 6.7337 4.0082 12.986 7.0544 18.838" fill="#e2231a" stroke-width=".80163"/><polygon class="st2" transform="matrix(.80163 0 0 .80163 64.234 62.346)" points="-0.3 257.3 220.7 165.3 303.3 363.9 82.3 455.8" clip-path="url(#SVGID_5_)" fill="url(#SVGID_6_)"/><g stroke-width=".80163"><path class="st0" d="m123.23 371.94h-5.6916c-3.447-6.1726-6.0924-12.826-7.9362-20.041-1.7636-6.8139-2.5652-13.548-2.5652-20.281 0.0802-36.154 24.45-69.021 61.084-78.4 6.7337-1.6834 13.467-2.5652 20.121-2.5652 33.588 0 64.451 21.003 76.155 53.309l-10.582 3.7677c-12.345-23.247-35.753-37.516-61.966-37.516-6.0924 0-12.265 0.80163-18.518 2.3247-33.348 8.4973-55.473 38.398-55.553 71.265 0 6.0924 0.72147 12.265 2.3247 18.438 0.80163 3.447 1.8438 6.5734 3.1264 9.6998" fill="#e2231a"/><rect x="300.4" y="388.85" width="7.1345" height="27.977"/><path d="m313.38 397.19c0-3.2065-0.0802-5.9321-0.24049-8.337h6.1726l0.32065 4.1685h0.16033c1.2024-2.1644 4.2487-4.8098 8.8981-4.8098 4.89 0 9.9403 3.1264 9.9403 12.024v16.594h-7.0544v-15.792c0-4.0082-1.5231-7.0544-5.3709-7.0544-2.8057 0-4.7296 2.0041-5.5313 4.1685-0.24049 0.6413-0.32066 1.5231-0.32066 2.3247v16.433h-7.1345"/><path d="m343.2 410.34c1.6033 0.96196 4.6495 2.0041 7.2147 2.0041 3.1264 0 4.4892-1.2826 4.4892-3.1264 0-1.9239-1.1223-2.8859-4.5693-4.0883-5.4511-1.9239-7.7758-4.89-7.6957-8.1767 0-4.9701 4.0883-8.818 10.582-8.818 3.1264 0 5.7718 0.80163 7.375 1.6834l-1.3628 4.9701c-1.2024-0.72147-3.447-1.6033-5.9321-1.6033-2.5652 0-3.928 1.2024-3.928 2.966 0 1.7636 1.2826 2.6454 4.89 3.928 5.0503 1.8438 7.375 4.409 7.4552 8.5775 0 5.0503-3.928 8.818-11.383 8.818-3.3669 0-6.4131-0.88179-8.4973-2.0041"/><path d="m390.9 408.49c0 3.3669 0.0802 6.0924 0.24049 8.4172h-6.2527l-0.32066-4.2487h-0.0802c-1.2024 2.0041-3.928 4.89-8.9783 4.89-5.1305 0-9.7799-3.0462-9.7799-12.185v-16.433h7.0544v15.231c0 4.6495 1.5231 7.6155 5.2106 7.6155 2.8057 0 4.6495-2.0041 5.3709-3.7677 0.24049-0.64131 0.40082-1.3628 0.40082-2.1644v-16.914h7.0544"/><path d="m396.75 397.91c0-3.7677-0.0802-6.4932-0.24049-9.0585h6.1726l0.24049 5.3709h0.24049c1.3628-3.928 4.6495-6.0122 7.6155-6.0122 0.72147 0 1.1223 0.0802 1.6834 0.16033v6.6536c-0.56114-0.0802-1.2024-0.24049-2.0842-0.24049-3.3669 0-5.6916 2.1644-6.3329 5.371-0.0802 0.64131-0.24049 1.3628-0.24049 2.1644v14.51h-7.0544"/><path d="m436.75 410.17c0 2.5652 0.0802 4.9701 0.40082 6.7337h-6.4131l-0.48098-3.1264h-0.16033c-1.7636 2.1644-4.6495 3.7677-8.2568 3.7677-5.6114 0-8.818-4.0883-8.818-8.337 0-7.0544 6.2527-10.662 16.594-10.582v-0.48098c0-1.8438-0.72147-4.89-5.6916-4.89-2.7256 0-5.6114 0.8818-7.5354 2.0842l-1.3628-4.5693c2.0842-1.2826 5.6916-2.4851 10.101-2.4851 8.9783 0 11.544 5.6916 11.544 11.784m-6.8139 3.1264c-4.9701-0.0802-9.7799 0.96196-9.7799 5.2106 0 2.7256 1.7636 4.0082 4.0082 4.0082 2.8057 0 4.89-1.8438 5.5313-3.8478 0.16033-0.48098 0.24049-1.1223 0.24049-1.5231z"/><path d="m441.24 397.19c0-3.2065-0.0802-5.9321-0.24049-8.337h6.1726l0.32065 4.1685h0.16033c1.2024-2.1644 4.2487-4.8098 8.8981-4.8098 4.89 0 9.9403 3.1264 9.9403 12.024v16.594h-7.0544v-15.792c0-4.0082-1.5231-7.0544-5.3709-7.0544-2.8057 0-4.7296 2.0041-5.5313 4.1685-0.24049 0.6413-0.32065 1.5231-0.32065 2.3247v16.433h-7.1345"/><path d="m492.95 416.03c-1.5231 0.72147-4.409 1.5231-7.9362 1.5231-8.7378 0-14.429-5.6114-14.429-14.269 0-8.4172 5.7718-14.91 15.552-14.91 2.5652 0 5.2106 0.56114 6.8139 1.2826l-1.2826 5.2908c-1.1223-0.48098-2.8057-1.1223-5.3709-1.1223-5.371 0-8.6576 3.928-8.5775 9.0585 0 5.7718 3.7677 9.0585 8.5775 9.0585 2.4851 0 4.1685-0.48098 5.6114-1.1223"/><path d="m501.44 404.88c0.16033 5.0503 4.1685 7.2147 8.6576 7.2147 3.2867 0 5.6114-0.48098 7.7758-1.2826l1.0421 4.89c-2.4049 0.96196-5.7718 1.7636-9.7799 1.7636-9.0585 0-14.429-5.6114-14.429-14.189 0-7.7758 4.7296-15.071 13.708-15.071 9.1386 0 12.105 7.4552 12.105 13.628 0 1.2826-0.16033 2.3247-0.24049 2.966m-6.5734-4.89c0.0802-2.5652-1.1223-6.8139-5.7718-6.8139-4.3288 0-6.1726 3.928-6.4932 6.8139z"/><path d="m148.57 371.94v-6.5734l6.8139-6.2527c13.467-12.505 19.8-19.4 19.881-26.935 0-5.1304-2.7256-9.6196-10.181-9.6196-5.0503 0-9.3791 2.5652-12.265 4.7296l-3.2065-7.6957c4.1685-3.3669 10.421-5.9321 17.636-5.9321 12.666 0 18.838 8.0163 18.838 17.315 0 10.02-7.2147 18.117-17.155 27.416l-5.0503 4.3288v0.16033h23.568v8.9783"/></g><polyline transform="matrix(.80163 0 0 .80163 64.234 62.346)" points="172.1 326.9 171.9 326.9 158.8 333.5 156.5 323.3 173.9 314.7 185.2 314.7 185.2 386.2 172.1 386.2"/><g stroke-width=".80163"><path d="m222.08 362c2.4851 1.5231 7.1345 3.0462 10.982 3.0462 4.7296 0 6.894-1.9239 6.894-4.7296 0-2.8859-1.7636-4.409-7.0544-6.2527-8.337-2.8859-11.864-7.4552-11.784-12.505 0-7.6155 6.2527-13.467 16.193-13.467 4.7296 0 8.8981 1.2024 11.383 2.5652l-2.0842 7.6957c-1.8438-1.0421-5.2908-2.4851-9.0585-2.4851-3.8478 0-6.0123 1.8438-6.0123 4.4891 0 2.7256 2.0041 4.0883 7.4552 6.0123 7.7758 2.8057 11.383 6.8139 11.463 13.147 0 7.7758-6.0924 13.467-17.476 13.467-5.2106 0-9.8601-1.2826-13.067-3.0462"/><path d="m269.13 317.99v10.982h10.341v8.0965h-10.341v18.919c0 5.2106 1.4429 7.9362 5.5313 7.9362 2.0041 0 2.966-0.16032 4.2487-0.56114l0.16033 8.4172c-1.6033 0.64131-4.409 1.1223-7.856 1.1223-3.928 0-7.2949-1.4429-9.3791-3.6074-2.3247-2.4851-3.3669-6.3329-3.3669-12.025v-20.201h-6.1726v-8.0965h6.1726v-7.9362"/><path d="m340.4 370.17c-2.5652 1.2826-8.1767 2.7256-15.311 2.7256-18.838 0-30.302-11.864-30.302-29.981 0-19.56 13.548-31.344 31.745-31.344 7.1345 0 12.265 1.5231 14.429 2.6454l-2.4049 8.6576c-2.8057-1.2024-6.7337-2.3247-11.624-2.3247-12.105 0-20.762 7.6155-20.762 21.885 0 13.067 7.6957 21.404 20.682 21.404 4.409 0 8.9783-0.8818 11.784-2.1644"/><path d="m352.82 353.5c0.24049 7.7758 6.3329 11.063 13.227 11.063 5.0503 0 8.6576-0.72147 11.864-1.9239l1.6033 7.4552c-3.6875 1.5231-8.818 2.7256-14.991 2.7256-13.948 0-22.125-8.6576-22.125-21.724 0-11.864 7.2147-23.087 21.003-23.087 14.029 0 18.518 11.463 18.518 20.923 0 2.0041-0.16032 3.6074-0.32065 4.5693m-9.9403-7.5354c0.0802-3.928-1.6834-10.501-8.8981-10.501-6.7337 0-9.5394 6.0924-9.9403 10.501z"/><path d="m387.05 341.8c0-4.9701-0.0802-9.0584-0.32065-12.746h9.5394l0.56115 6.4131h0.24049c1.8438-3.3669 6.4932-7.375 13.628-7.375 7.4552 0 15.231 4.8098 15.231 18.438v25.492h-10.822v-24.209c0-6.1726-2.3247-10.822-8.1767-10.822-4.3288 0-7.2949 3.0462-8.4172 6.3329-0.32065 0.96196-0.40082 2.3247-0.40082 3.5272v25.171h-10.902"/><path d="m445.49 317.99v10.982h10.341v8.0965h-10.341v18.919c0 5.2106 1.4429 7.9362 5.5313 7.9362 2.0041 0 2.966-0.16032 4.2487-0.56114l0.16032 8.4172c-1.6033 0.64131-4.409 1.1223-7.856 1.1223-3.928 0-7.2949-1.4429-9.3791-3.6074-2.3247-2.4851-3.3669-6.3329-3.3669-12.025v-20.201h-6.1726v-8.0965h6.1726v-7.9362"/><path d="m499.76 359.03c0 5.1304 0.16033 9.3791 0.32065 12.826h-9.5394l-0.56114-6.4932h-0.0802c-1.8438 3.0462-6.0924 7.4552-13.708 7.4552-7.856 0-14.991-4.6495-14.991-18.678v-25.171h10.822v23.328c0 7.1345 2.3247 11.704 8.0163 11.704 4.3288 0 7.1345-3.0462 8.2568-5.8519 0.32065-0.96196 0.64131-2.0842 0.64131-3.3669v-25.893h10.822"/><path d="m507.3 342.84c0-5.8519-0.0802-9.9403-0.32066-13.868h9.3791l0.32065 8.1767h0.32065c2.0842-6.0924 7.1345-9.1386 11.704-9.1386 1.0421 0 1.6834 0.0802 2.5652 0.24049v10.181c-0.8818-0.16032-1.8438-0.32065-3.2065-0.32065-5.2106 0-8.7378 3.3669-9.6998 8.1767-0.16033 0.96196-0.32065 2.0842-0.32065 3.3669v22.205h-10.822"/><path d="m546.1 328.97 7.7758 23.007c0.88179 2.6454 1.7636 5.9321 2.4049 8.337h0.24049c0.72147-2.4851 1.5231-5.6114 2.3247-8.4172l6.7337-22.927h11.624l-10.742 29.26c-5.9321 16.033-9.8601 23.167-14.991 27.576-4.2487 3.7677-8.6576 5.2106-11.383 5.5313l-2.4851-9.1386c1.8438-0.48098 4.1685-1.4429 6.3329-2.966 2.0041-1.2826 4.409-3.8478 5.9321-6.8139 0.48098-0.80164 0.72147-1.4429 0.72147-1.9239s-0.0802-1.0421-0.64131-2.0842l-15.712-39.36"/></g></g></svg>
