<svg xmlns="http://www.w3.org/2000/svg" xmlns:xlink="http://www.w3.org/1999/xlink" width="500" height="178.44" fill="#f5e6c8" viewBox="0 0 500 178.444"><defs><linearGradient id="b" x1="-462.16" x2="-457.45" y1="707.37" y2="707.37" gradientTransform="matrix(1.1089 37.226 37.226 -1.1089 -25727 18211)" gradientUnits="userSpaceOnUse"><stop offset="0" stop-color="#c8c9ca"/><stop offset=".003" stop-color="#c9cacb"/><stop offset=".088" stop-color="#e1e1e2"/><stop offset=".179" stop-color="#f2f2f2"/><stop offset=".277" stop-color="#fcfcfc"/><stop offset=".399" stop-color="#fff"/><stop offset="1" stop-color="#fff"/></linearGradient><linearGradient id="d" x1="-467.7" x2="-462.98" y1="692.6" y2="692.6" gradientTransform="matrix(-37.53 15.618 15.618 37.53 -28142 -18410)" gradientUnits="userSpaceOnUse"><stop offset="0" stop-color="#c8c9ca"/><stop offset=".003" stop-color="#c9cacb"/><stop offset=".088" stop-color="#e1e1e2"/><stop offset=".179" stop-color="#f2f2f2"/><stop offset=".277" stop-color="#fcfcfc"/><stop offset=".399" stop-color="#fff"/><stop offset=".581" stop-color="#fcfcfc"/><stop offset=".73" stop-color="#f2f2f2"/><stop offset=".867" stop-color="#e1e1e2"/><stop offset=".997" stop-color="#c9cacb"/><stop offset="1" stop-color="#c8c9ca"/></linearGradient><clipPath id="a"><use xlink:href="#SVGID_1_" width="100%" height="100%"/></clipPath><clipPath id="c"><use xlink:href="#SVGID_4_" width="100%" height="100%"/></clipPath></defs><path fill="#e2231a" d="M40.341 132.83h5.692a63 63 0 0 1-3.127-9.54C32.726 83.77 56.614 43.61 96.054 33.509c33.268-8.498 65.253 6.573 80.484 35.192l10.582-3.768c-14.109-38.72-55.473-61.245-96.276-50.824-43.449 11.063-69.582 55.233-58.519 98.68a83.2 83.2 0 0 0 8.017 20.042" class="st0"/><path fill="#e2231a" d="M7.156 132.83h22.606a86.4 86.4 0 0 1-7.134-18.758C10.684 67.337 36.576 18.277 87.4 6.412c12.425-2.886 25.813-2.485 37.997-.08.801.16 1.442-1.684 0-2.245-16.674-5.37-34.951-5.29-53.228-.641C20.945 16.513-10.08 68.779 2.988 120.166c1.122 4.409 2.565 8.577 4.168 12.666" class="st0"/><path fill="url(#b)" d="m16.3 390.9-5.1-170.3 162.5-4.8 5 170.2z" class="st1" clip-path="url(#a)" transform="translate(-12.965 -176.764)scale(.80163)"/><path fill="#e2231a" d="M29.841 132.83H7.155c-1.683-4.088-3.046-8.257-4.168-12.586C.902 112.228-.06 104.131.02 96.275.1 53.468 28.96 14.508 72.328 3.446 81.146 1.201 90.044-.001 98.702-.001c9.218 0 18.277 1.363 26.855 4.088.64.24.881.722.881 1.123 0 .56-.32 1.122-.801 1.122h-.08c-6.333-1.283-12.987-2.004-19.64-2.004-6.173 0-12.346.641-18.358 2.004-42.487 9.94-67.498 45.853-67.658 84.652 0 7.615.882 15.31 2.886 23.007 1.604 6.734 4.009 12.986 7.055 18.838" class="st0"/><path fill="url(#d)" d="m-.3 257.3 221-92 82.6 198.6-221 91.9z" class="st2" clip-path="url(#c)" transform="translate(-12.965 -176.764)scale(.80163)"/><g stroke-width=".802"><path fill="#e2231a" d="M46.031 132.83h-5.692c-3.447-6.173-6.092-12.826-7.936-20.041a80.4 80.4 0 0 1-2.565-20.281c.08-36.154 24.45-69.021 61.084-78.4 6.734-1.683 13.467-2.565 20.121-2.565 33.588 0 64.451 21.003 76.155 53.309l-10.582 3.767c-12.345-23.247-35.753-37.516-61.966-37.516-6.092 0-12.265.802-18.518 2.325-33.348 8.497-55.473 38.398-55.553 71.265 0 6.093.721 12.265 2.325 18.438.801 3.447 1.844 6.574 3.126 9.7" class="st0"/><path d="M223.201 149.74h7.135v27.977h-7.135zM236.181 158.08c0-3.207-.08-5.932-.24-8.337h6.172l.32 4.169h.161c1.202-2.165 4.249-4.81 8.898-4.81 4.89 0 9.94 3.126 9.94 12.024v16.594h-7.054v-15.792c0-4.009-1.523-7.055-5.37-7.055-2.807 0-4.73 2.004-5.532 4.169-.24.641-.32 1.523-.32 2.324V177.8h-7.135M266.001 171.23c1.603.962 4.65 2.004 7.215 2.004 3.126 0 4.489-1.283 4.489-3.126 0-1.924-1.122-2.886-4.57-4.089-5.45-1.924-7.775-4.89-7.695-8.176 0-4.97 4.088-8.818 10.582-8.818 3.126 0 5.772.801 7.375 1.683l-1.363 4.97c-1.202-.721-3.447-1.603-5.932-1.603-2.565 0-3.928 1.202-3.928 2.966 0 1.763 1.283 2.645 4.89 3.928 5.05 1.844 7.375 4.409 7.455 8.577 0 5.05-3.928 8.818-11.383 8.818-3.367 0-6.413-.881-8.497-2.004M313.701 169.38c0 3.367.08 6.092.24 8.417h-6.252l-.32-4.248h-.081c-1.202 2.004-3.928 4.89-8.978 4.89-5.13 0-9.78-3.047-9.78-12.186V149.82h7.054v15.231c0 4.65 1.523 7.616 5.21 7.616 2.806 0 4.65-2.004 5.372-3.768.24-.641.4-1.363.4-2.164V149.82h7.055M319.551 158.8c0-3.768-.08-6.493-.24-9.058h6.172l.24 5.37h.241c1.363-3.928 4.65-6.012 7.616-6.012.721 0 1.122.08 1.683.16v6.654c-.561-.08-1.202-.24-2.084-.24-3.367 0-5.692 2.164-6.333 5.37-.08.642-.24 1.363-.24 2.165v14.51h-7.055M359.551 171.06c0 2.565.08 4.97.4 6.734h-6.412l-.481-3.127h-.16c-1.764 2.165-4.65 3.768-8.257 3.768-5.612 0-8.818-4.088-8.818-8.337 0-7.054 6.252-10.662 16.594-10.582v-.481c0-1.844-.722-4.89-5.692-4.89-2.726 0-5.611.882-7.535 2.084l-1.363-4.57c2.084-1.282 5.691-2.484 10.1-2.484 8.98 0 11.545 5.691 11.545 11.784m-6.814 3.126c-4.97-.08-9.78.962-9.78 5.21 0 2.726 1.764 4.009 4.008 4.009 2.806 0 4.89-1.844 5.532-3.848.16-.48.24-1.122.24-1.523zM364.041 158.08c0-3.207-.08-5.932-.24-8.337h6.172l.32 4.169h.161c1.202-2.165 4.249-4.81 8.898-4.81 4.89 0 9.94 3.126 9.94 12.024v16.594h-7.054v-15.792c0-4.009-1.523-7.055-5.37-7.055-2.807 0-4.73 2.004-5.532 4.169-.24.641-.32 1.523-.32 2.324V177.8h-7.135M415.751 176.92c-1.523.721-4.409 1.523-7.936 1.523-8.738 0-14.43-5.611-14.43-14.269 0-8.417 5.773-14.91 15.553-14.91 2.565 0 5.21.561 6.814 1.283l-1.283 5.29c-1.122-.48-2.806-1.122-5.37-1.122-5.372 0-8.658 3.928-8.578 9.059 0 5.771 3.767 9.058 8.577 9.058 2.485 0 4.169-.48 5.612-1.122M424.241 165.77c.16 5.05 4.169 7.215 8.658 7.215 3.286 0 5.611-.481 7.775-1.283l1.043 4.89c-2.405.962-5.772 1.764-9.78 1.764-9.059 0-14.43-5.612-14.43-14.19 0-7.775 4.73-15.07 13.709-15.07 9.138 0 12.105 7.455 12.105 13.628 0 1.282-.16 2.324-.24 2.966m-6.574-4.89c.08-2.566-1.123-6.814-5.772-6.814-4.329 0-6.173 3.928-6.493 6.814zM71.371 132.83v-6.573l6.814-6.253c13.467-12.505 19.8-19.4 19.88-26.935 0-5.13-2.725-9.62-10.18-9.62-5.05 0-9.38 2.565-12.265 4.73l-3.207-7.696c4.169-3.367 10.421-5.932 17.636-5.932 12.666 0 18.838 8.016 18.838 17.315 0 10.02-7.214 18.117-17.155 27.416l-5.05 4.329v.16h23.568v8.979"/></g><path d="M124.996 85.289h-.16l-10.502 5.29-1.844-8.176 13.948-6.894h9.059v57.317h-10.501"/><g stroke-width=".802"><path d="M144.881 122.89c2.485 1.523 7.135 3.046 10.982 3.046 4.73 0 6.894-1.924 6.894-4.73 0-2.885-1.764-4.408-7.054-6.252-8.337-2.886-11.864-7.455-11.784-12.505 0-7.616 6.252-13.467 16.193-13.467 4.73 0 8.898 1.202 11.383 2.565l-2.085 7.696c-1.843-1.042-5.29-2.485-9.058-2.485-3.848 0-6.012 1.843-6.012 4.489 0 2.725 2.004 4.088 7.455 6.012 7.776 2.806 11.383 6.814 11.463 13.147 0 7.776-6.093 13.467-17.476 13.467-5.21 0-9.86-1.282-13.067-3.046M191.931 78.88v10.982h10.341v8.097h-10.341v18.918c0 5.211 1.443 7.937 5.531 7.937 2.004 0 2.966-.16 4.249-.561l.16 8.417c-1.603.641-4.409 1.122-7.856 1.122-3.928 0-7.295-1.443-9.379-3.607-2.324-2.485-3.367-6.333-3.367-12.025V97.959h-6.172v-8.097h6.172v-7.936M263.201 131.06c-2.565 1.283-8.177 2.726-15.311 2.726-18.838 0-30.302-11.864-30.302-29.981 0-19.56 13.548-31.344 31.745-31.344 7.134 0 12.265 1.523 14.429 2.645l-2.405 8.658c-2.806-1.203-6.734-2.325-11.624-2.325-12.105 0-20.762 7.615-20.762 21.885 0 13.067 7.696 21.404 20.682 21.404 4.41 0 8.978-.882 11.784-2.165M275.621 114.39c.24 7.776 6.333 11.063 13.227 11.063 5.05 0 8.658-.721 11.864-1.924l1.603 7.455c-3.687 1.523-8.818 2.726-14.99 2.726-13.949 0-22.126-8.658-22.126-21.724 0-11.864 7.215-23.087 21.003-23.087 14.03 0 18.518 11.463 18.518 20.923 0 2.004-.16 3.607-.32 4.57m-9.94-7.536c.08-3.928-1.684-10.501-8.899-10.501-6.733 0-9.54 6.092-9.94 10.5zM309.851 102.69c0-4.97-.08-9.058-.32-12.746h9.539l.56 6.413h.241c1.844-3.367 6.494-7.375 13.628-7.375 7.456 0 15.231 4.81 15.231 18.438v25.492h-10.822v-24.209c0-6.172-2.324-10.822-8.176-10.822-4.33 0-7.295 3.046-8.418 6.333-.32.962-.4 2.325-.4 3.527v25.171h-10.902M368.291 78.88v10.982h10.341v8.097h-10.341v18.918c0 5.211 1.443 7.937 5.531 7.937 2.004 0 2.966-.16 4.249-.561l.16 8.417c-1.603.641-4.409 1.122-7.856 1.122-3.928 0-7.295-1.443-9.379-3.607-2.324-2.485-3.367-6.333-3.367-12.025V97.959h-6.172v-8.097h6.172v-7.936M422.561 119.92c0 5.13.16 9.38.32 12.826h-9.539l-.56-6.493h-.081c-1.844 3.046-6.092 7.455-13.708 7.455-7.856 0-14.991-4.65-14.991-18.678V89.859h10.822v23.328c0 7.134 2.325 11.704 8.016 11.704 4.329 0 7.135-3.046 8.257-5.852.32-.962.641-2.084.641-3.367V89.78h10.822M430.101 103.73c0-5.852-.08-9.94-.32-13.868h9.378l.321 8.177h.32c2.085-6.093 7.135-9.139 11.705-9.139 1.042 0 1.683.08 2.565.24v10.182c-.882-.16-1.844-.321-3.207-.321-5.21 0-8.737 3.367-9.7 8.177-.16.962-.32 2.084-.32 3.367v22.205h-10.822M468.901 89.86l7.776 23.007c.882 2.645 1.763 5.932 2.405 8.337h.24c.722-2.485 1.523-5.611 2.325-8.417l6.734-22.927h11.624l-10.742 29.26c-5.933 16.033-9.86 23.167-14.991 27.576-4.25 3.768-8.658 5.21-11.383 5.531l-2.486-9.138c1.844-.481 4.169-1.443 6.333-2.966 2.004-1.283 4.41-3.848 5.932-6.814q.722-1.203.722-1.924c0-.721-.08-1.042-.641-2.084l-15.712-39.36"/></g></svg>