<svg xmlns="http://www.w3.org/2000/svg" viewBox="0 0 579.24 78.61"><title>Flickchart</title><desc>The official logo of Flickchart</desc><g fill="#f5e6c8"><path d="M105.04.82v6.07h-9.83V.82h-7.19v13.52H24.3V.82h-7.19v6.07H7.19V.82H0v76.85h7.19v-6.26h9.92v6.26h7.19V64.32h63.73v13.35h7.19v-6.26h9.83v6.26h7.19V.82h-7.19ZM7.19 14.08h9.92v6.86H7.19zm0 14.05h9.92v7.53H7.19zm0 14.72h9.92v6.84H7.19zm0 21.38v-7.35h9.92v7.35zm80.84-28.57v21.48H24.3v-35.6h63.72v14.13Zm17.01 28.57h-9.83v-7.35h9.83zm0-14.54h-9.83v-6.84h9.83zm0-14.03h-9.83v-7.53h9.83zm0-14.72h-9.83v-6.86h9.83zm55.85-4.43h3.23L161.65.85c-.95-.13-1.85-.27-2.7-.43s-1.82-.24-2.89-.24c-3.86 0-7.18.54-9.96 1.6-2.78 1.07-5.07 2.56-6.88 4.48-1.8 1.92-3.15 4.26-4.03 7.03-.89 2.77-1.33 5.85-1.33 9.25h-3.51l-3.04 16.23h6.54v39.41h20.59V38.77h8.15V22.54h-8.16c0-1.89.55-3.36 1.66-4.43s2.7-1.6 4.79-1.6Zm9.79 26.16v35.52h20.18V27.27l.07-25.9-20.4.53zm28.36-41.49-.1 17.25 21.28-1.51-.11-16.69zm-.06 22.33h-.02v54.67h.02v.01l.07-.01h20.43V56.02l.65-34.22-21.15 1.7zm61.1 33.28c-2.6 1.27-5.06 1.61-7.4 1.04s-4.14-2.12-5.41-4.65c-.63-1.2-.96-2.39-1-3.56-.03-1.17.19-2.26.67-3.27.47-1.01 1.14-1.94 1.99-2.8.85-.85 1.88-1.6 3.08-2.23.69-.38 1.59-.6 2.7-.67 1.1-.06 2.26 0 3.46.19s2.39.51 3.56.95 2.2 1.01 3.08 1.71l12.52-16.41c-2.28-1.52-5.08-3-8.39-4.46-3.32-1.45-7.23-2.18-11.72-2.18s-8.66.68-12.52 2.04-7.19 3.32-10.01 5.88c-2.81 2.56-5.01 5.69-6.59 9.39s-2.37 7.86-2.37 12.47c0 3.98.76 7.7 2.28 11.15s3.62 6.45 6.31 9.01 5.85 4.57 9.49 6.02c3.63 1.46 7.6 2.18 11.9 2.18 1.84 0 3.73-.11 5.69-.33s3.89-.62 5.79-1.19 3.75-1.31 5.55-2.23 3.49-2.07 5.07-3.46l-12.9-17.07-4.83 2.47Zm71.68-34.12-20.96-1.71-8.67 18.52V28.91L303.49.19 281.96 1.9l.07 10.42v65.86h20.1v-1.63l.04-.01-.04-.96v-20.1l11.8 22.77 18.81-3.49-13.31-28.19z"/><path d="M366.45 56.79c-2.59 1.27-5.06 1.61-7.4 1.04s-4.14-2.12-5.41-4.65c-.63-1.2-.97-2.39-.99-3.56q-.045-1.755.66-3.27c.48-1.01 1.14-1.94 1.99-2.8.85-.85 1.88-1.6 3.08-2.23.7-.38 1.6-.6 2.7-.67 1.1-.06 2.26 0 3.46.19s2.39.51 3.56.95 2.2 1.01 3.08 1.71l12.52-16.41c-2.28-1.52-5.08-3-8.4-4.46-3.32-1.45-7.23-2.18-11.71-2.18s-8.66.68-12.52 2.04-7.19 3.32-10.01 5.88c-2.81 2.56-5.01 5.69-6.59 9.39s-2.37 7.86-2.37 12.47c0 3.98.76 7.7 2.27 11.15 1.52 3.45 3.62 6.45 6.31 9.01s5.85 4.57 9.49 6.02 7.6 2.18 11.9 2.18c1.83 0 3.73-.11 5.69-.33s3.89-.62 5.78-1.19c1.9-.57 3.75-1.31 5.55-2.23s3.49-2.07 5.08-3.46l-12.9-17.07-4.83 2.47Zm67.47-30.61c-1.39-1.71-3.12-3.04-5.17-3.98-2.05-.95-4.41-1.42-7.07-1.42s-4.93.46-7.02 1.38-3.92 2.42-5.5 4.51h-.19l.66-26.65-21.25 1.71.52 58.15V78.2h19.98v-.03h.09V43.65c0-1.26.43-2.26 1.28-2.99s1.88-1.09 3.08-1.09c1.26 0 2.28.38 3.04 1.14.63.63.98 1.38 1.09 2.23v35.29h20.1v-4.32l.53-34.24c.06-2.65-.27-5.14-.99-7.45-.73-2.31-1.79-4.32-3.18-6.02Zm54.97-.99c-2.24-1.63-4.85-2.81-7.83-3.52a38.6 38.6 0 0 0-9.11-1.08c-3.41 0-6.77.17-10.05.52q-4.935.525-9.48 1.83l-3.7 14.95c2.46-.75 4.9-1.41 7.3-1.97s4.99-.85 7.77-.85c3.04 0 5.5.47 7.4 1.41 1.89.94 2.84 2.85 2.84 5.74v2.82c-1.39-1.06-3.08-2.02-5.07-2.87s-4.45-1.27-7.35-1.27-5.36.46-7.73 1.36c-2.37.91-4.43 2.16-6.16 3.76a17.7 17.7 0 0 0-4.12 5.64c-1.01 2.16-1.52 4.53-1.52 7.1 0 2.95.51 5.61 1.52 7.99s2.37 4.42 4.08 6.11 3.7 2.99 5.98 3.9 4.68 1.36 7.21 1.36q4.545 0 8.49-1.41c2.6-.93 4.74-2.57 6.44-4.9v6.35h19.98V53.88l.38-12.9c.06-3.76-.57-6.92-1.9-9.5-1.33-2.57-3.12-4.67-5.36-6.3Zm-17.78 36.68c-1.2 1.19-3.04 1.97-5.5 2.35-2.47.38-4.48.21-6.02-.52q-2.325-1.08-2.7-3.24-.285-2.16 1.8-3.9c1.39-1.16 3.16-1.9 5.31-2.21 2.66-.44 4.7-.24 6.12.61s2.23 1.87 2.42 3.06c.25 1.38-.22 2.66-1.42 3.86Zm51.08-30.76H522V20.58l-19.26 1.71.48 46.71v9.17h20.03V51.26c.09-3.46 1.04-6.02 2.88-7.68 1.93-1.74 4.22-2.61 6.88-2.61h1.89c.51 0 .98.03 1.42.1l4.93-20.2c-1.52-.19-3.13-.29-4.84-.29-7.84 0-12.58 3.51-14.23 10.53Zm55.63 28.36c-.51.06-1.17.1-1.99.1-1.9 0-3.11-.32-3.65-.95s-.8-1.9-.8-3.79v-16.6h6.45l1.04-17.45-7.68 1.14V6.36l-20.58 9.29v6.26h-4.46l-.57 16.41 5.22-.09v22.48c0 6.2 1.69 10.67 5.08 13.42 3.38 2.75 8.11 4.13 14.18 4.13 1.07 0 2.07-.02 2.99-.05.91-.03 1.88-.11 2.89-.24l3.32-18.78c-.44.13-.92.22-1.42.28Z"/></g></svg>