<svg xmlns="http://www.w3.org/2000/svg" width="847" height="149"><path d="M-31.418 625.773c0-41.6 23.359-51.412 62.61-51.412H96.75c49.458 0 56.326 17.847 56.326 45.522v4.52H110.28c0-14.13-8.049-15.893-21.974-15.893h-47.3c-21.989 0-27.675 5.292-27.675 29.628v17.658c0 24.35 5.686 29.643 27.675 29.643h46.513c11.388 0 22.76-1.764 22.76-15.5v-4.126H56.112v-29.44h97.751v40.434c0 40.812-21.2 42.78-70.265 42.78H31.193c-39.252 0-62.611-9.813-62.611-51.412zM164.652 575.924h155.433v32.968H208.22v22.775h105.99v29.44H208.22v22.76h114.417v34.149H164.652zM335.824 575.923h43.583v142.091h-43.583zM392.562 625.773c0-41.6 23.358-51.412 62.61-51.412h51.223c62.013 0 70.076 13.342 69.668 53.57h-43.568v-3.922c0-10.207-7.45-13.152-20.413-13.152h-47.49c-22.965 0-27.281 10.805-27.281 28.462v15.31c0 20.603 4.316 28.462 24.933 28.462h46.513c19.626 0 25.503-1.968 25.503-19.64h43.567v13.356c0 23.942-8.631 42.78-52.404 42.78h-70.25c-39.253 0-62.611-9.813-62.611-51.412zM630.24 654.626c0 20.603 4.316 28.462 24.934 28.462h55.728c20.603 0 24.919-7.859 24.919-28.462v-15.31c0-17.657-4.316-28.462-27.266-28.462H657.52c-22.965 0-27.28 10.805-27.28 28.462zm-44.749-28.855c0-41.6 23.359-51.413 62.61-51.413h69.858c39.267 0 62.626 9.813 62.626 51.413v42.401c0 41.6-23.36 51.413-62.626 51.413h-69.857c-39.252 0-62.61-9.813-62.61-51.413zM797.141 701.864c2.202 0 5.629.365 5.629-2.843 0-2.42-2.144-2.712-4.083-2.712h-4.491v5.555zm7.364 8.763h-2.275l-4.505-7.246h-3.529v7.246h-1.925v-15.732h6.868c1.312 0 2.64.087 3.82.772 1.167.671 1.764 2.07 1.764 3.398 0 3.09-2.172 4.243-4.972 4.316zm5.336-7.888c0-6.81-5.526-12.32-12.335-12.32-6.853 0-12.365 5.51-12.365 12.32 0 6.897 5.512 12.409 12.365 12.409 6.81 0 12.335-5.512 12.335-12.409m-26.435 0c0-7.728 6.299-14.027 14.1-14.027 7.757 0 14.027 6.3 14.027 14.027 0 7.801-6.27 14.115-14.027 14.115-7.801 0-14.1-6.314-14.1-14.115" style="fill:#104293;fill-opacity:1;fill-rule:nonzero;stroke:none" transform="translate(33.275 -572.445)"/></svg>