<svg xmlns="http://www.w3.org/2000/svg" xml:space="preserve" id="Layer_1" x="0" y="0" viewBox="213 3 486 55"><style>.st0{fill:#006ba6}</style><g id="Home"><g id="Home-Copy" transform="translate(-75 -58)"><g id="_x31_400-expanded" transform="translate(-1.5)"><g id="top-bar"><g id="logo" transform="translate(76 58)"><path id="Fill-1" d="M250.1 19.8c-.6-.5-1.4-1.1-2.2-1.3l-1.3 25.4 6.4-17.6c.6-2.7-.9-4.9-2.9-6.5" class="st0"/><path id="Fill-2" d="m239.6 18.2 3.7 25.3 3.6-25.3c-2.1-.8-4.9-.9-7.3 0" class="st0"/><path id="Fill-3" d="M236.5 19.8c-2 1.7-3.5 3.9-2.9 6.5l6.4 17.6-1.3-25.4c-.8.2-1.6.7-2.2 1.3" class="st0"/><path id="Fill-4" d="M223.7 22.2c4.2 7.4 8.6 15.3 12.8 22.4-1.5-6.2-3-16.5-5.2-19.4-2.5-3.5-7.6-3-7.6-3" class="st0"/><path id="Fill-5" d="m216.2 25.9 17.4 20-10.8-23.6c-2.8.1-5.2 1.5-6.6 3.6" class="st0"/><path id="Fill-6" d="M252.5 31.3 249.6 45c3.7-6.4 7.4-12.7 11-19.1-3.4.2-6.9 1.5-8.1 5.4" class="st0"/><path id="Fill-7" d="m261.6 25.9-9.2 20.3 16.1-17.5c-1.8-1.9-4.2-2.8-6.9-2.8" class="st0"/><path id="Fill-8" d="M213.9 34.9c5.7 4.3 11.3 8.8 17 13.1l-15.3-21.5c-1.4 2.5-1.8 5.3-1.7 8.4" class="st0"/><path id="Fill-9" d="M270.5 31.2c-.3-.7-.7-1.3-1.3-1.8l-13.9 18.9c5.5-4.1 10.8-8.3 16.1-12.4.1-1.7-.1-3.3-.9-4.7" class="st0"/><path id="Fill-10" d="m213.9 43.7 14.8 6.8c-4.9-4.9-9.9-9.6-14.8-14.4z" class="st0"/><path id="Fill-11" d="M271.5 44.2v-6.9l-14 13.5c4.8-2.3 9.2-4.4 14-6.6" class="st0"/><path id="Fill-12" d="M213.9 50.4c4.5 1 9.3 2.2 13.3 3.1l-13.3-8.8z" class="st0"/><path id="Fill-13" d="M271.5 50.8v-5.3c-4.2 2.6-8.5 5.4-12.4 8.1z" class="st0"/><path id="Fill-14" d="M213.9 57h13l-13-5.5z" class="st0"/><path id="Fill-15" d="M271.5 57v-5c-4.3 1.8-8 3.3-12 5z" class="st0"/><path id="Fill-16" d="M267 19.1c.1-7.8-11.3-7.8-11.1-.1-.1 7.2 11.4 7.6 11.1.1" class="st0"/><path id="Fill-17" d="M267 19.1" class="st0"/><path id="Fill-18" d="M229.8 15.1c.4-7.8-11.8-7.5-11.3 0-.4 7.8 12 7.9 11.3 0" class="st0"/><path id="Fill-19" d="M243.3 16.6c4.5.1 6.3-3.2 6.4-6.3.2-4.8-2.8-6.8-6.4-6.8s-6.5 2.1-6.3 6.8c.1 2.7 1.2 6.2 6.3 6.3" class="st0"/><path id="Fill-20" d="M339.1 26.3h5.3v30.4h-5.3z" class="st0"/><path id="Fill-21" d="m320.4 26.3-9 25.8-8.8-11 11.7-14.8h-6.1l-10.8 14.4V26.3h-5.3v30.4h5.3v-15l11.2 15h6.4l2.8-8.8H329l2.9 8.8h5.5l-10.6-30.4zm-1.3 17.4 4.1-12.6h.1l4.2 12.6z" class="st0"/><path id="Fill-22" d="m516.2 48.3-5.3-22h-9.3v30.4h5.2V30.8l6.7 25.9h5.3c.1 0 6.7-25.9 6.7-25.9v25.9h5.2V26.3h-9.1z" class="st0"/><path id="Fill-23" d="m544 26.3-10.6 30.5h5.2l2.8-8.8h11.3l3 8.8h5.5l-10.6-30.5zm-1.2 17.4 4.1-12.6h.1l4.3 12.6z" class="st0"/><path id="Fill-24" d="m582.7 49.8-12.2-23.5h-7v30.4h5V33.8l12 22.9h7.2V26.3h-5.1v23.5" class="st0"/><path id="Fill-25" d="M683 52.3h-12.6v-8.6h9.3v-4.4h-9.3v-8.6h11.5v-4.4h-16.8v30.5h17.8z" class="st0"/><path id="Fill-26" d="M634.7 26.2h-1V50l-12.2-23.7h-7v26h-16.1v-8.6h9.3v-4.4h-9.3v-8.6h11.5v-4.4h-16.7v30.5h26.3V33.5l12 23.2h7.2V30.9h9.3v25.9h5.3V30.9h9.1v-4.6h-27.7" class="st0"/><path id="Fill-27" d="M494 41.4c1.7-1.4 2.9-3.7 2.9-6.5s-1.2-5-2.9-6.4c-1.9-1.6-4.5-2.2-8.9-2.2h-8.9v26.1H460v-8.6h9.3v-4.4H460v-8.6h11.5v-4.4h-16.8v30.5h26.8V43.8h2.6c2.4 3.8 7.6 13 7.6 13h6.3l-8.2-13.4c1.8-.4 3.1-1.1 4.2-2m-12.4-2.1v-8.6h4.5c4 0 5.6 1.6 5.6 4.2 0 2.9-1.6 4.3-5.6 4.3h-4.5z" class="st0"/><path id="Fill-28" d="M410.4 41.4c1.7-1.4 2.9-3.7 2.9-6.5s-1.2-5-2.9-6.4c-1.8-1.6-4.5-2.2-8.9-2.2h-8.9v26.1h-16.2v-8.6h9.3v-4.4h-9.3v-8.6h11.5v-4.4h-16.8v30.5h26.8V43.8h2.6c2.4 3.8 7.6 13 7.6 13h6.3l-8.2-13.4c1.9-.4 3.2-1.1 4.2-2M398 39.3v-8.6h4.5c4 0 5.6 1.6 5.6 4.2 0 2.9-1.6 4.3-5.6 4.3H398z" class="st0"/><path id="Fill-29" d="M448.7 28.6c-1.9-1.6-4.5-2.3-8.9-2.3h-8.9v30.5h5.3V44.2h3.6c4.4 0 7-.8 8.8-2.4 1.7-1.4 2.9-3.8 2.9-6.6s-1.2-5.2-2.8-6.6m-8 11.1h-4.5v-9h4.5c4 0 5.6 1.8 5.6 4.4 0 2.8-1.8 4.6-5.6 4.6" class="st0"/><path id="Fill-30" d="M359.9 39c-4.2-1.5-6.1-2.7-6.1-5.1 0-1.8 1.9-3.9 5.5-3.9 2.7 0 5.3.9 6.6 1.6v-4.4c-1.4-.7-3.9-1.4-6.5-1.4-6.6 0-11.1 3.7-11.1 8.6 0 4.4 3.4 7.1 8.5 8.8 4 1.4 5.7 2.8 5.7 5.2 0 2.6-2.2 4.4-5.9 4.4-2.9 0-6.5-1-8.4-2.2v4.7c1.8 1 5 1.8 8 1.8 7.9 0 11.7-4.2 11.7-9.1.1-4.5-2.7-7.1-8-9" class="st0"/><path id="Fill-31" d="M687.8 51.3c0-2.9 2.2-5.1 5.1-5.1 2.8 0 5 2.2 5 5.1 0 3-2.2 5.1-5 5.1-2.8.1-5.1-2.1-5.1-5.1m5.1 6.2c3.4 0 6.3-2.6 6.3-6.2 0-3.5-2.9-6.2-6.3-6.2s-6.3 2.6-6.3 6.2 2.9 6.2 6.3 6.2m-1.3-5.7h1.2l1.9 3.1h1.2l-2-3.1c1.1-.1 1.9-.7 1.9-2 0-1.4-.8-2-2.5-2h-2.7v7.1h1.1v-3.1zm0-.9v-2.2h1.5c.8 0 1.6.2 1.6 1 0 1.1-.8 1.2-1.7 1.2z" class="st0"/></g></g></g></g></g></svg>