<svg xmlns="http://www.w3.org/2000/svg" xml:space="preserve" width="250" height="64" viewBox="0 0 250 64"><g fill="#f5e6c8"><path d="M124.612 19.747c1.564 0 2.856 1.215 2.856 2.702 0 1.496-1.292 2.708-2.856 2.708s-2.86-1.213-2.86-2.708c0-1.488 1.296-2.702 2.86-2.702M197.713 19.747c1.557 0 2.862 1.215 2.862 2.702 0 1.496-1.306 2.708-2.862 2.708-1.564 0-2.858-1.213-2.858-2.708-.001-1.488 1.293-2.702 2.858-2.702M104.926 33.88v10.112h-4.435v-1.698c-1.161 1.249-2.584 2.035-4.801 2.095-3.496.101-6.236-2.027-6.236-5.209 0-4.898 5.216-5.972 10.321-5.972h.573c0-1.351-.598-2.604-3.296-2.604-1.833 0-3.387.585-4.49 1.603l-2.686-2.673c1.848-1.814 4.432-2.747 7.3-2.747 2.838 0 4.395.401 5.983 1.825 1.492 1.34 1.767 3.862 1.767 5.268m-4.577 2.814h-.423c-.749 0-2.555.089-3.917.459-.94.262-1.728.878-1.728 1.731 0 1.22 1.217 1.75 2.311 1.75 2.353 0 3.757-1.498 3.757-3.432zM114.68 27.188v-5.29h-4.771v5.29h-3.293v3.991h3.293v7.139c0 2.385.405 3.807 1.354 4.758.898.901 2.262 1.313 4.291 1.313 1.276 0 2.572-.252 3.575-.687v-3.785c-.609.206-1.485.345-2.583.345-1.488 0-1.866-.809-1.866-2.176V31.18h4.449v-3.991h-4.449zM240.956 35.892v1.262H228.64c.093 1.722 2.025 3.191 4.306 3.281 2.138.084 3.313-.751 4.406-1.947l3.036 2.216c-1.841 2.328-4.118 3.686-7.35 3.686-5.119 0-9.299-3.179-9.299-8.792 0-4.497 2.786-8.81 8.694-8.81 6.09-.001 8.523 4.722 8.523 9.104m-5.069-2.188c-.219-1.831-1.223-3.17-3.612-3.121-2.025.045-3.402 1.411-3.618 3.121zM81.311 19.608v16.556L70.967 19.608h-6.464v24.384h5.256V26.884l10.637 17.108h6.169V19.608zM188.566 27.188l-2.707 10.439-2.717-10.439h-5.002l-2.623 10.416-2.704-10.416h-5.283l5.385 16.804h4.791l2.876-10.561 3.247 10.561h4.437l5.369-16.804zM122.195 27.188h4.84v16.804h-4.84zM195.302 27.188h4.835v16.804h-4.835zM164.561 28.331c-1.03-1.052-2.284-1.551-4.159-1.538-1.844.015-3.984.917-4.996 2.228v-1.826h-4.634v16.802h4.837v-9.131c0-1.191.328-2.065.884-2.69.495-.55 1.202-.898 2.098-.949 1.101-.065 1.684.408 2.097.936.519.661.664 1.795.664 3.333v8.501h4.832V33.502c-.001-2.049-.277-3.757-1.623-5.171M220.979 19.608v24.384h-4.551v-1.867c-1.065 1.228-2.811 2.264-5.218 2.264-2.329 0-4.342-.779-5.82-2.271-1.598-1.591-2.478-3.913-2.478-6.521 0-5.103 3.424-8.81 8.135-8.81 2.068 0 3.778.636 5.103 1.884v-9.063zm-4.71 15.989c0-2.264-1.458-4.549-4.262-4.549s-4.262 2.285-4.262 4.549c0 2.249 1.459 4.536 4.262 4.536 2.804 0 4.262-2.287 4.262-4.536M147.999 35.597c0 5.095-3.813 8.792-9.087 8.792-5.271 0-9.1-3.697-9.1-8.792 0-5.103 3.828-8.81 9.1-8.81 5.274 0 9.087 3.707 9.087 8.81m-9.087-4.549c-2.809 0-4.269 2.285-4.269 4.549 0 2.249 1.46 4.536 4.269 4.536 2.801 0 4.263-2.287 4.263-4.536 0-2.264-1.462-4.549-4.263-4.549M240.452 25.497c0-1.197.889-2.114 2.052-2.114 1.15 0 2.047.917 2.047 2.114 0 1.212-.896 2.136-2.047 2.136-1.163 0-2.052-.924-2.052-2.136m-.459 0c0 1.427 1.15 2.499 2.511 2.499A2.48 2.48 0 0 0 245 25.497c0-1.402-1.134-2.478-2.496-2.478-1.36.001-2.511 1.076-2.511 2.478m1.538 1.463h.454v-1.253h.48l.792 1.253h.487l-.842-1.286c.442-.045.775-.264.775-.795 0-.553-.333-.828-1.025-.828h-1.122v2.909zm.454-2.543h.6c.313 0 .639.066.639.443 0 .465-.363.481-.766.481h-.473z"/></g><path fill="#0081c6" d="M48.779 48.702H8.805V8.728H48.78zm3.807-43.781H5v54.157h47.586z"/><path fill="#fff" d="M22.42 50.825c.356 0 .648.273.648.611 0 .34-.292.613-.648.613-.353 0-.646-.273-.646-.613 0-.337.294-.611.646-.611M38.978 50.825c.355 0 .649.273.649.611 0 .34-.294.613-.649.613-.353 0-.648-.273-.648-.613-.001-.337.295-.611.648-.611M17.959 54.025v2.29h-1.004v-.383c-.264.28-.584.462-1.085.474-.792.023-1.414-.459-1.414-1.18 0-1.11 1.18-1.353 2.339-1.353h.127c0-.307-.132-.59-.743-.59-.416 0-.769.133-1.021.363l-.605-.606c.418-.411 1.004-.62 1.653-.62.643 0 .996.088 1.354.411.337.306.399.876.399 1.194m-1.036.638h-.095c-.168 0-.579.021-.884.104-.215.06-.395.2-.395.393 0 .275.277.396.524.396.535 0 .849-.34.849-.777zM20.171 52.509v-1.198h-1.08v1.198h-.75v.906h.75v1.614c0 .545.089.865.304 1.077.206.207.512.3.971.3.291 0 .586-.06.814-.155v-.858a1.9 1.9 0 0 1-.586.079c-.339 0-.423-.184-.423-.492v-1.564h1.009v-.906zM48.774 54.48v.287h-2.787c.018.39.455.723.974.744.482.02.746-.174.996-.442l.689.505c-.418.525-.934.832-1.663.832-1.162 0-2.108-.721-2.108-1.993 0-1.015.635-1.992 1.97-1.992 1.378 0 1.929 1.067 1.929 2.059m-1.151-.492c-.046-.419-.273-.721-.817-.709-.458.01-.77.321-.816.709zM12.614 50.795v3.749l-2.342-3.749H8.805v5.52h1.19v-3.876l2.41 3.876h1.398v-5.52zM36.908 52.509l-.616 2.366-.614-2.366h-1.134l-.594 2.358-.611-2.358h-1.197l1.221 3.806h1.083l.656-2.394.731 2.394h1.007l1.215-3.806zM21.875 52.509h1.093v3.807h-1.093zM38.433 52.509h1.093v3.807h-1.093zM31.467 52.768c-.228-.237-.515-.349-.939-.347-.417.002-.904.207-1.132.504v-.413h-1.053v3.807h1.099V54.25c0-.269.074-.468.199-.608a.68.68 0 0 1 .478-.217.52.52 0 0 1 .475.215c.117.147.146.404.146.753v1.927h1.094v-2.38c0-.463-.057-.851-.367-1.172M44.25 50.795v5.521h-1.034v-.421c-.238.276-.635.512-1.18.512-.524 0-.982-.179-1.318-.514-.362-.361-.563-.887-.563-1.479 0-1.155.776-1.992 1.842-1.992.469 0 .857.141 1.156.426v-2.052h1.097zm-1.066 3.618c0-.511-.33-1.029-.965-1.029-.638 0-.969.519-.969 1.029 0 .512.332 1.027.969 1.027.635 0 .965-.515.965-1.027M27.717 54.413c0 1.156-.864 1.993-2.057 1.993-1.197 0-2.063-.837-2.063-1.993 0-1.155.865-1.992 2.063-1.992 1.194 0 2.057.837 2.057 1.992m-2.057-1.029c-.638 0-.966.519-.966 1.029 0 .512.328 1.027.966 1.027.635 0 .966-.516.966-1.027s-.331-1.029-.966-1.029"/></svg>