<svg xmlns="http://www.w3.org/2000/svg" xml:space="preserve" id="Layer_1" x="0" y="0" viewBox="0 0 537.31 121.24"><style>.st0{fill:#649441}</style><path id="path3277" d="M0 39.08S.12 3.47 43.24 3.47c61.87 0 60.88 88.98 1.25 88.98-12.12 0-21.18-3.06-26.74-7.51v35.5H0zm43.35-15.59c-30.14 0-30.52 47.45 0 47.45 30.61 0 30.14-47.45 0-47.45" class="st0"/><path id="path3279" d="M236.22 84.82s.11 35.62 43.24 35.62c61.4 0 58.81-88.98 1.25-88.98-12.12 0-21.18 3.06-26.74 7.51V3.47h-17.75zm43.35 15.59c-30.2 0-30.54-47.45 0-47.45 30.61 0 30.24 47.45 0 47.45" class="st0"/><path id="path3281" d="m121.15 91.99.02-55.98h20.22l.12 55.98s3.37 11.98 17.75 11.98c14.15 0 20.37-11.98 20.37-11.98l.11-55.98h18.66v55.98s-4.39 29.24-38.23 29.24c-34.05 0-39.02-29.24-39.02-29.24" class="st0"/><path id="path3283" d="M356.81 5.97h20.25v114.47h-20.25z" class="st0"/><path id="path3285" d="M413.7 36.46h20.26v83.98H413.7z" class="st0"/><path id="path3287" d="M437.18 12.4c0 6.85-5.55 12.4-12.4 12.4s-12.4-5.55-12.4-12.4S417.93 0 424.78 0s12.4 5.55 12.4 12.4" class="st0"/><path id="path3289" d="m491.9 77.37-25.44-40.68h22.76l11.6 20.26 11.5-20.26h20.25l-20.36 40.62 25.1 43.13h-20.09l-13.83-22.76-11.66 22.76h-22.7z" class="st0"/></svg>