<?xml version="1.0" encoding="UTF-8" standalone="no"?>
<svg xmlns:rdf="http://www.w3.org/1999/02/22-rdf-syntax-ns#" xmlns="http://www.w3.org/2000/svg" xml:space="preserve" height="30.979" viewBox="0 0 190.4248 30.979" width="190.42" version="1.1" xmlns:cc="http://creativecommons.org/ns#" xmlns:dc="http://purl.org/dc/elements/1.1/"><g transform="matrix(1.25 0 0 -1.25 -282.71 74.448)"><g transform="matrix(.25 0 0 .25 226.87 35.49)"><path d="m0.074219 1.584v115.53h260.6v-115.53h-260.6zm537.55 0.1484c-6.8125 0-13.146 3.6121-13.146 11.131 0 15.46 24.043 9.0634 24.043 20.492 0 6.2188-5.5103 9.3594-11.133 9.3594-8.1725 0-11.726-6.161-12.438-8.8848-0.29375-1.245-0.29375-1.9531-1.125-1.9531-0.5925 0-0.88735 0.65023-0.65234 1.834l1.4824 7.6426c0.235 1.0638 5.6246 3.2559 10.006 3.2559 13.444 0 16.941-7.4638 16.941-12.438 0-16.345-24.047-9.8316-24.047-20.963 0-5.45 4.975-7.7012 9.6562-7.7012 5.2088 0 9.5336 2.6074 11.309 7.7012 0.1775 0.53375 0.59414 1.7754 1.2441 1.7754 0.59125 0 0.71219-0.41438 0.64844-0.89062l-0.88477-8.0527c-0.0625-0.64875-0.35468-0.82812-0.71093-0.82812-0.5925 0-0.7136 0.65039-1.2461 0.65039-0.8275 0-2.781-2.1309-9.9473-2.1309zm163.56 0c-12.14 0-21.734 8.943-21.734 21.262 0 12.496 7.876 21.615 20.729 21.615 13.208 0 22.387-8.5891 22.387-21.914 0-12.256-9.2984-20.963-21.381-20.963zm-204.49 0.5059c-0.44857 0.010173-0.75656 0.029297-0.875 0.029297-3.0788 0-6.4556 0.23438-9.8906 0.23438-3.0212 0-2.7273-0.23438-3.791-0.23438-0.71125 0-1.1875 0.35203-1.1875 0.70703 0 2.015 5.0938-0.41477 5.0938 5.2715v30.145c0 4.5012-4.3242 3.6711-4.3242 5.1523 0 0.35625 0.24016 0.65039 0.59766 0.65039 2.245 0 4.4968-0.23633 6.748-0.23633 4.9162 0 6.2768 0.23633 6.8106 0.23633 0.47625 0 1.0059 0.11859 1.0059-0.47266 0-2.0162-6.1562-0.17773-6.1562-5.2715v-12.496c0-0.5925-0.35719-1.6562 1.5391-1.6562 6.6325 0 5.742-0.17828 7.877 3.1367l6.5723 10.365c2.2512 3.3762 4.5598 6.3945 8.8848 6.3945 0.5325 0 3.8476-0.0015 3.8476-0.70898 0-1.4238-2.9017 0.76945-7.168-5.748l-9.8887-14.979c4.1462-1.6587 7.4648-5.6286 7.4648-10.246 0-10.005-10.02-10.345-13.16-10.273zm-205.23 0.021484c-0.1916 0.0002344-0.3475 0.00781-0.42188 0.00781-1.835 0-3.73 0.23438-5.625 0.23438-1.6 0-3.0804-0.23438-4.6191-0.23438-0.29625 0-1.3027 0.17805-1.3027 0.5918 0 1.895 4.7969 0.47055 4.7969 3.9668v19.957c0 9.12 2.9602 17.826 18.535 17.826 17.235 0 16.523-14.626 16.523-17.531v-18.355c0-5.45 3.4961-4.1466 3.4961-5.8066 0-0.35625-0.47523-0.64844-0.77148-0.64844-1.065 0-2.1321 0.23438-3.2559 0.23438-2.3112 0-4.6209-0.23438-6.9297-0.23438-0.17875 0-0.5918 0.29305-0.5918 0.5918 0 2.25 5.5078-0.24047 5.5078 5.8008v19.187c0 6.9888-2.5472 14.334-13.68 14.334-7.995 0-14.156-4.3245-14.156-13.801v-21.262c0-4.2612 3.9688-2.606 3.9688-4.2598 0-0.53438-0.89981-0.60031-1.4746-0.59961zm36.385 0.00781c-0.295 0-0.88867 0.23555-0.88867 0.5918 0 2.1888 7.166-1.2465 7.166 11.072v21.852c0 8.2925-5.2129 5.6873-5.2129 7.7598 0 0.29875 0.059 0.65039 0.77148 0.65039 0.41375 0 3.4939-0.23633 5.5664-0.23633 2.9012 0 4.5592 0.23633 5.9805 0.23633 0.595 0 0.65234-0.47273 0.65234-0.77148 0-1.5975-5.2109 0.47648-5.2109-4.8535v-24.223c0-1.1838 0.17852-1.3613 0.41602-1.3613 0.41375 0 1.1227 1.0038 1.2402 1.125l25.467 28.664c1.2438 1.3625 1.8362 1.6582 2.25 1.6582 0.47625 0 0.5332-0.83258 0.5332-2.5488v-34.287c0-4.3238 3.4941-3.2551 3.4941-4.7988 0-0.35125-0.23875-0.5293-0.59375-0.5293-1.42 0-3.9648 0.23438-5.9785 0.23438-1.895 0-3.6131-0.23438-5.3906-0.23438-0.355 0-0.65039 0.17805-0.65039 0.5918 0 1.9525 6.5742-0.29977 6.5742 7.459v24.754c0 0.475-0.0627 0.6543-0.17773 0.6543-0.12 0-0.35594-0.2368-0.71094-0.6543l-28.25-31.445c-0.35625-0.41375-0.88852-1.3594-1.541-1.3594-0.89 0-1.8357 0.23438-2.7207 0.23438-0.9475 0-1.8377-0.23438-2.7852-0.23438zm48.621 0c-0.47125 0-0.59375 0.11469-0.59375 0.64844 0 1.3038 4.7394 0.11945 4.7969 4.4395v30.324c0 5.8625-4.6172 3.9082-4.6172 5.627 0 0.59125 0.17789 0.88672 1.2442 0.88672 0.82874 0 2.0711-0.23633 5.6836-0.23633 2.5475 0 5.0913 0.23633 6.4551 0.23633 1.0088 0 1.1875-0.175 1.1875-0.59375 0-1.775-5.2734-0.4125-5.2734-4.4375v-31.807c0-4.44 4.2637-3.0773 4.2637-4.4961 0-0.47625-0.1775-0.5918-1.125-0.5918-1.835 0-3.6716 0.23438-5.5078 0.23438-2.1912 0-4.3199-0.23438-6.5137-0.23438zm20.223 0c-0.5325 0-0.83007 0.29242-0.83007 0.82617-0.00001 1.3038 3.0786 0.17867 4.5586 3.7324l14.629 34.586c0.53374 1.2412 1.2439 3.7285 2.1914 3.7285 0.88875 0 1.3051-1.9543 1.9551-3.4355l14.75-34.879c1.6575-3.9675 3.3164-2.4853 3.3164-3.7891 0-0.53375-0.35531-0.76953-1.0078-0.76953-0.8275 0-1.7174 0.23438-4.5586 0.23438-1.3038 0-2.6064-0.23438-3.9102-0.23438-0.5925 0-0.88477 0.17828-0.88477 0.76953 0 1.3612 3.7891 0.23453 3.7891 2.957 0.235 1.2462-0.47578 3.1423-0.83203 4.0273l-10.303 25.406c-0.29625 0.7125-0.47391 1.6602-1.0664 1.6602-0.65125 0-1.0654-1.3607-2.3691-4.502l-10.36-24.398c-0.24-0.5332-0.53-1.4806-0.53-2.3081 0-2.135 2.4883-2.192 2.4258-3.0195 0-0.35625-0.47117-0.5918-0.82617-0.5918-0.83 0-3.0784 0.23438-4.6797 0.23438-1.7762 0-3.6135-0.23438-5.4473-0.23438zm49.268 0c-1.7175 0-2.0742 0.23578-2.0742 0.70703 0 0.7125 1.303 0.83227 1.7793 0.94727 3.195 0.47625 3.1934 3.3187 3.1934 5.9824v27.004c0 2.785-0.11555 4.4448-1.6543 5.1523-1.8962 0.9475-2.4862 0.83156-2.6074 1.5391 0 0.47625 0.35687 0.59375 0.89063 0.59375 2.3662 0 4.8534-0.17383 7.2246-0.23633 4.4975-0.115 8.9995 0.23633 13.502 0.23633 2.6062 0 3.907 0.11953 5.8008-2.0117 1.4238-1.5388 2.9629-3.6129 2.9629-5.7441 0-0.12-0.0578-0.71094-0.47656-0.71094-0.77 0-2.779 6.0977-16.459 6.0977-4.975 0-4.502-1.4185-4.502-4.916v-10.893c0-0.89-0.17859-1.8965 1.0664-1.8965h8.7637c4.975 0 2.9594 5.209 4.7969 5.209 0.41375 0 0.6543-0.23578 0.6543-0.76953-0.004-1.5975-0.12109-3.1359-0.12109-4.6797 0-1.895 0.11718-3.9048 0.11718-5.9785 0.004-0.47625-0.17414-1.127-0.65039-1.127-1.4188 0 0.17899 4.7383-5.9785 4.7383h-6.3984c-2.3725 0-2.25 0.0013-2.25-2.0137v-11.018c0-3.9688-0.1218-3.7266 5.5644-3.7266 2.3712 0 8.5277-0.35695 10.066 1.6543 0.94875 1.365 0.00078 4.209 1.4258 4.209 0.355 0 1.1816-0.47578 1.1816-7.0508 0-0.7075-0.1193-1.2988-0.5918-1.2988-1.8362 0-7.2832 0.23438-8.4707 0.23438-2.4862 0-5.5634-0.23438-16.756-0.23438zm112.01 0c-0.47625 0-0.5918 0.11469-0.5918 0.64844 0 1.3038 4.7381 0.11945 4.7969 4.4395v30.324c0 5.8625-4.6172 3.9082-4.6172 5.627 0 0.59125 0.17773 0.88672 1.2402 0.88672 0.83125 0 2.073-0.23633 5.6856-0.23633 2.55 0 5.0938 0.23633 6.4551 0.23633 1.0112 0 1.1875-0.175 1.1875-0.59375 0-1.775-5.2715-0.4125-5.2715-4.4375v-31.807c0-4.44 4.2617-3.0773 4.2617-4.4961 0-0.47625-0.1775-0.5918-1.125-0.5918-1.8325 0-3.6703 0.23438-5.5078 0.23438-2.1888 0-4.3249-0.23438-6.5137-0.23438zm18.951 0c-1.0662 0-1.0089 1.5961-1.0664 2.3086l-0.65039 5.7422c0 0.29875 0.2368 0.71289 0.5918 0.71289 0.77 0 0.82906-0.77078 1.0078-1.3633 1.0662-3.26 1.1824-4.1445 4.8574-4.1445h9.6524c0.8275 0.0575 0.59375 2.3089 0.59375 2.7227v30.793c0 3.555-4.6816 2.9641-4.6816 4.3828 0 0.59625 0.17914 0.77148 0.71289 0.77148 0.355 0 1.4806-0.23633 8.1094-0.23633 1.7212 0 3.377 0.23633 4.8008 0.23633 0.59125 0 0.53321-0.53148 0.53321-0.70898 0-1.8375-4.8008 0.11633-4.8008-4.8574v-30.203c0-3.14-0.2939-2.9004 2.3711-2.9004h8.4668c6.0412 0 2.8426 4.498 5.0352 4.498 0.77 0 0.71164-0.70758 0.65039-1.2988l-0.28-4.7384c-0.0625-1.365-0.35555-1.7168-1.7168-1.7168-1.1875 0-6.6342 0.23438-17.355 0.23438-7.6375 0-12.198-0.23438-16.816-0.23438zm42.189 0c-0.41375 0-0.76953 0.46977-0.76953 0.88477 0 1.01 2.8994 0.2968 4.4394 2.8418l9.8945 15.816c0.47125 0.7075 1.3613 1.8944 1.3613 3.0156v14.336c0 4.2038-4.5605 2.6623-4.5605 4.3223 0 0.65 0.35672 0.70898 0.88672 0.70898 0.53374 0 2.6638-0.23633 5.3301-0.23633 2.1925 0 5.6276 0.23633 6.5176 0.23633 0.8275 0 1.3613-0.05875 1.3613-0.59375 0-1.8325-4.8594-0.17688-4.8594-5.3281v-14.508c0-0.89 0.47633-1.1828 1.4238-2.6641l8.31-12.912c0.9475-1.4812 1.7157-3.1404 3.3144-4.0879 0.41375-0.23625 1.418-0.47125 1.418-1.125 0-0.2925-0.29414-0.70703-0.65039-0.70703-1.7175 0-3.4329 0.23438-5.1504 0.23438-1.4238 0-2.9017-0.23438-4.3242-0.23438-0.65125 0-1.2402 0.11477-1.2402 0.88477 0 1.4238 4.4375 0.17812 4.4375 3.0781 0 1.6025-0.82734 2.608-1.2461 3.2617l-6.0977 9.8887c-0.47125 0.77-0.8275 1.1836-1.125 1.1836-0.35625 0-0.70735-0.35516-1.1836-1.0664l-7.17-11.43c-0.355-0.53375-1.0625-1.4822-1.0625-2.4297 0-1.7175 2.7793-1.7743 2.7793-2.7793 0-0.535-0.7075-0.5918-1.125-0.5918-0.5925 0-2.1881 0.23438-4.1406 0.23438-4.0312 0-5.1564-0.23438-6.7539-0.23438zm108.19 0c-1.7163 0-2.0723 0.23578-2.0723 0.70703 0 0.7125 1.3041 0.83227 1.7754 0.94727 3.1975 0.47625 3.1973 3.3187 3.1973 5.9824v27.303c0 6.5712-4.3242 4.8537-4.3242 6.5137 0 0.12 0.1214 0.5332 0.59765 0.5332 1.0625 0 3.1362-0.29688 6.1562-0.29688 5.5075 0 6.0999 0.29688 6.5137 0.29688 0.41751 0 1.3047-0.000781 1.3047-0.83203 0-1.3612-5.5684 0.17719-5.5684-5.4453v-11.961c0-0.89-0.29789-1.8965 1.0684-1.8965h8.7656c4.9725 0 2.9574 5.209 4.7949 5.209 0.41375 0 0.65039-0.23578 0.65039-0.76953 0-1.5975-0.11719-3.1359-0.11719-4.6797 0-1.895 0.11719-3.9048 0.11719-5.9785 0-0.47625-0.17914-1.127-0.65039-1.127-1.4238 0 0.17883 4.7383-5.9824 4.7383h-6.3926c-2.3712 0-2.2539 0.0013-2.2539-2.0137v-11.018c0-3.9688-0.11789-3.7266 5.5684-3.7266 2.37 0 8.5277-0.35695 10.066 1.6543 0.9475 1.365 0.00008 4.209 1.4238 4.209 0.35625 0 1.1836-0.47578 1.1836-7.0508 0-0.7075-0.1218-1.2988-0.5918-1.2988-1.8375 0-7.2882 0.23438-8.4707 0.23438-2.4862 0-5.566-0.23438-16.76-0.23438zm-27.89 1.4179c11.55 0 18.83 10.482 18.83 21.262 0 10.956-6.9255 17.885-15.574 17.885-11.728 0-18.889-10.604-18.889-21.557 0-9.36 5.6853-17.59 15.633-17.59zm-205.3 0.5352c5.8012 0 11.309 2.4273 11.309 9.6523 0 7.34-5.6835 8.4082-8.2285 8.4082-2.785 0-6.4551 0.29883-6.4551-0.82617v-15.047c0-2.3088 1.24-2.1875 3.375-2.1875zm238.62 69.988c-0.73875 0-0.90726 0.9482-4.2598 8.4082l-13.588 30.203c-1.4812 3.3762-4.1524 2.3688-4.1524 3.6113 0 0.35625 0.17047 0.65039 0.51172 0.65039 1.4775 0 3.0119-0.23633 4.5469-0.23633 1.5925 0 3.1859 0.23633 4.7734 0.23633 0.74375 0 1.5391 0.17703 1.5391-0.88672 0-1.5388-4.0391 0.23735-4.0391-3.9102 0-0.76875 0.22665-1.6585 0.40039-2.0723l3.6387-8.2891c0.565-1.245 1.5874-1.2441 2.6699-1.2441h12.51c1.5888 0 1.9312 0.88875 2.5 2.25l1.8203 4.8574c0.57 1.5975 1.7617 4.3225 1.7617 5.625 0 2.2512-3.4121 1.6587-3.4121 3.0762 0 0.5925 0.9125 0.59375 1.25 0.59375 1.535 0 3.0731-0.23633 4.6094-0.23633 2.33 0 4.6558 0.23633 6.9883 0.23633 0.4 0 0.79688-0.001 0.79688-0.53125 0-1.48-3.295-0.17484-5-2.9023-1.3075-2.0738-1.995-4.5612-2.8438-6.75l-11.82-30.502c-0.17375-0.4725-0.56977-2.1895-1.1973-2.1895zm-440.16 0.41406c-6.54 0-12.621 3.6109-12.621 11.131 0 15.459 23.08 9.0627 23.08 20.49 0 6.22-5.2837 9.3594-10.688 9.3594-7.845 0-11.256-6.1591-11.938-8.8828-0.28499-1.245-0.28578-1.9551-1.082-1.9551-0.57 0.00001-0.85375 0.65024-0.625 1.834l1.4219 7.6445c0.2275 1.0625 5.4006 3.2559 9.6094 3.2559 12.905 0 16.26-7.467 16.26-12.439 0-16.345-23.084-9.8316-23.084-20.963 0-5.45 4.7776-7.6992 9.2676-7.6992 5.005-0.000001 9.1537 2.6055 10.857 7.6992 0.17126 0.535 0.57032 1.7754 1.1953 1.7754 0.56625 0 0.6825-0.41367 0.625-0.88867l-0.85156-8.0527c-0.0575-0.65-0.3411-0.82812-0.6836-0.82812-0.57 0-0.68016 0.64844-1.1914 0.64844-0.79625 0-2.6752-2.1289-9.5527-2.1289zm38.092 0c-11.656 0-20.865 8.941-20.865 21.26 0 12.497 7.5597 21.617 19.898 21.617 12.676 0 21.49-8.5903 21.49-21.914 0-12.256-8.9247-20.963-20.523-20.963zm260.81 0c-11.655 0-20.863 8.941-20.863 21.26 0 12.497 7.5609 21.617 19.898 21.617 12.679 0 21.492-8.5903 21.492-21.914 0-12.256-8.9298-20.963-20.527-20.963zm36.645 0.50391c-0.43027 0.01017-0.72656 0.0293-0.83984 0.0293-2.96 0-6.1968 0.23438-9.498 0.23438-2.8962 0-2.611-0.23438-3.6348-0.23438-0.685 0-1.1367 0.35203-1.1367 0.70703 0 2.0162 4.8887-0.41476 4.8887 5.2715v30.145c0 4.5025-4.1543 3.6698-4.1543 5.1523 0 0.35625 0.22852 0.65039 0.57227 0.65039 2.1612 0 4.3192-0.23633 6.4805-0.23633 4.7162 0 6.0246 0.23633 6.5371 0.23633 0.4575 0 0.96875 0.1186 0.96875-0.47265 0-2.015-5.9121-0.17649-5.9121-5.2715v-12.496c0-0.59125-0.34344-1.6562 1.4766-1.6562 6.3662 0 5.5162-0.17828 7.5625 3.1367l6.3086 10.367c2.1612 3.3762 4.378 6.3926 8.5293 6.3926 0.51125 0 3.6953-0.00078 3.6953-0.70703 0-1.425-2.7871 0.76945-6.8809-5.748l-9.4941-14.979c3.9812-1.66 7.1621-5.6293 7.1621-10.248 0-10.005-9.619-10.345-12.631-10.273zm-263.51 0.02148c-0.18381 0.000234-0.3314 0.0078-0.40234 0.0078-1.7625 0-3.5836 0.23438-5.4023 0.23438-1.535 0-2.958-0.23438-4.4356-0.23438-0.28375 0-1.25 0.17805-1.25 0.5918 0 1.895 4.6055 0.47055 4.6055 3.9668v19.957c0 9.12 2.8424 17.828 17.795 17.828 16.546 0 15.861-14.628 15.861-17.533v-18.355c0-5.45 3.3535-4.1459 3.3535-5.8047 0-0.3575-0.45648-0.65039-0.74023-0.65039-1.0238 0-2.0462 0.23438-3.125 0.23438-2.2188 0-4.4324-0.23438-6.6524-0.23438-0.16875 0-0.56835 0.29305-0.56835 0.5918 0 2.2512 5.2871-0.24047 5.2871 5.8008v19.187c0 6.99-2.4441 14.334-13.133 14.334-7.6738 0-13.588-4.3238-13.588-13.799v-21.262c0-4.2625 3.8106-2.6067 3.8106-4.2617 0-0.53438-0.86459-0.60031-1.416-0.59961zm34.447 0.0078c-1.0238 0-0.96719 1.5961-1.0234 2.3086l-0.62695 5.7422c0 0.29875 0.22781 0.71289 0.57031 0.71289 0.73875 0 0.7968-0.76883 0.9668-1.3613 1.0225-3.2612 1.1376-4.1465 4.6602-4.1465h9.2676c0.79625 0.0575 0.56836 2.3089 0.56836 2.7227v30.795c0 3.555-4.4922 2.9628-4.4922 4.3828 0 0.595 0.17305 0.76953 0.68555 0.76953 0.34 0 1.4184-0.23633 7.7871-0.23633 1.6475 0 3.2405 0.23633 4.6055 0.23633 0.56875 0 0.51367-0.53078 0.51367-0.70703 0-1.8388-4.6074 0.11312-4.6074-4.8594v-30.203c0-3.14-0.28211-2.9004 2.2754-2.9004h8.127c5.8012 0 2.7315 4.498 4.834 4.498 0.74 0 0.6825-0.70758 0.625-1.2988l-0.28516-4.7383c-0.0575-1.3662-0.34023-1.7168-1.6465-1.7168-1.1375 0-6.3689 0.23438-16.66 0.23438-7.3338 0-11.712-0.23438-16.145-0.23438zm38.09 0c-0.4525 0-0.9082 0.11539-0.9082 0.65039 0 1.3025 4.8891 0.1175 4.9453 4.4375v30.324c0 5.8638-4.4336 3.9094-4.4336 5.627 0 0.5925 0.17125 0.88672 0.625 0.88672 0.22625 0 0.85437-0.23633 4.8906-0.23633 3.01 0 7.1586 0.23633 7.9024 0.23633 0.51125 0 0.9082-0.17516 0.9082-0.47265 0-1.8375-5.4004-0.5336-5.4004-4.5586v-14.748c0-0.65-0.002-1.0059 0.67969-1.0059h20.98c0.68 0 0.45507 0.53367 0.45507 1.4824v14.213c0 3.7275-3.9785 2.9003-3.9785 4.3203 0 0.9475 0.85203 0.76953 1.3633 0.76953 1.08 0 2.6738-0.23633 6.3125-0.23633 2.0462 0 3.808 0.23633 5.3418 0.23633 0.4 0 0.62695-0.53078 0.62695-0.70703 0-1.4825-5.1738-0.41328-5.1738-4.7383v-31.393c0-4.0838 3.8086-3.0781 3.8086-4.1406 0.00001-0.35625-0.11624-0.94727-1.5937-0.94727-1.1338 0-1.9874 0.23438-4.0898 0.23438-1.0825 0-4.0366-0.23438-5.9141-0.23438-0.855 0-0.96485 0.29289-0.96485 0.65039 0 1.36 4.2617 0.35375 4.2617 4.4375v12.143c0 0.24 0.11493 1.7168-0.45507 1.7168h-20.807c-0.855 0-0.85351-0.23695-0.85351-1.0645v-12.795c0-4.4388 4.0938-3.3123 4.0938-4.4961 0-0.24-0.11203-0.5918-1.082-0.5918-1.7625 0-3.5232 0.23438-5.2832 0.23438-2.105 0-4.1528-0.23438-6.2578-0.23438zm72.85 0c-1.6462 0-1.9883 0.23578-1.9883 0.70703 0 0.7125 1.2515 0.83102 1.709 0.94727 3.07 0.47625 3.0703 3.3187 3.0703 5.9824v27.303c0 6.5712-4.1524 4.8537-4.1524 6.5137 0 0.12 0.11157 0.53515 0.57032 0.53515 1.0225 0 3.0102-0.29883 5.9102-0.29883 5.2862 0 5.8557 0.29883 6.252 0.29883 0.4 0 1.25-0.00078 1.25-0.83203 0-1.3625-5.3418 0.17719-5.3418-5.4453v-11.963c0-0.89-0.28602-1.8965 1.0215-1.8965h8.418c4.7738 0.000001 2.843 5.209 4.6055 5.209 0.395 0 0.62305-0.23453 0.62305-0.76953 0-1.5963-0.11133-3.1352-0.11133-4.6777 0-1.8962 0.11133-3.9067 0.11133-5.9805 0-0.47625-0.17055-1.125-0.62305-1.125-1.3662 0 0.16836 4.7363-5.7441 4.7363h-6.1406c-2.2725 0-2.1602 0.0013-2.1602-2.0137v-11.016c0-3.9688-0.11195-3.7285 5.3418-3.7285 2.2775 0 8.1898-0.3557 9.666 1.6543 0.90875 1.3662 0.00094 4.209 1.3672 4.209 0.33875 0 1.1348-0.47578 1.1348-7.0508 0-0.7075-0.11156-1.2988-0.57031-1.2988-1.7612 0-6.987 0.23438-8.127 0.23438-2.3888 0-5.343-0.23438-16.092-0.23438zm29.74 0c-0.7375 0-1.1387 0.11578-1.1387 0.76953 0 1.1838 4.7793 0.76891 4.7793 3.8477v30.025c0 2.785-0.11625 4.4441-1.5938 5.1504-1.8188 0.94875-2.3888 0.83281-2.5 1.5391 0 0.47625 0.33836 0.59375 0.84961 0.59375 2.2775 0 4.6618-0.17508 6.9356-0.23633 4.3238-0.11625 8.6448 0.23633 12.965 0.23633 2.5 0 3.7535 0.11828 5.5723-2.0117 1.3625-1.54 2.8438-3.6109 2.8438-5.7422 0-0.12125-0.059-0.71093-0.45899-0.71093-0.73875 0-2.6683 6.0957-15.801 6.0957-4.7775 0-4.3262-1.4166-4.3262-4.9141v-28.783c0-5.1525 4.1523-3.67 4.1523-5.0312 0-0.7125-0.33828-0.82812-1.082-0.82812-0.84875 0-2.2144 0.23438-5.4531 0.23438-2.7888 0-4.5516-0.23438-5.7441-0.23438zm115.68 0c-0.45375 0-0.56836 0.11539-0.56836 0.65039 0 1.3025 4.5519 0.1175 4.6094 4.4375v30.324c0 5.8638-4.4375 3.9094-4.4375 5.627 0 0.5925 0.17086 0.88672 1.1934 0.88672 0.79625 0 1.989-0.23633 5.459-0.23633 2.4462 0 4.8885 0.23633 6.1973 0.23633 0.96625 0 1.1387-0.175 1.1387-0.59375 0-1.775-5.0625-0.4125-5.0625-4.4375v-31.807c0-4.4388 4.0918-3.0773 4.0918-4.4961 0-0.47625-0.16883-0.5918-1.0801-0.5918-1.7625 0-3.5239 0.23438-5.2852 0.23438-2.1038 0-4.1509-0.23438-6.2559-0.23438zm18.65 0c-0.34125 0-0.79688 0.17805-0.79688 0.5918 0 1.5975 4.6621-0.29836 4.6621 5.7441v29.49c0 5.6275-4.0391 4.1459-4.0391 5.5059 0 0.3575 0.11531 0.59375 0.57031 0.59375 0.4 0 5.8579-0.23633 6.3691-0.23633 2.8962 0 5.798 0.23633 8.6992 0.23633 15.749 0 21.945-9.4146 21.945-23.037 0-10.956-9.8945-18.889-19.957-18.889-4.89 0-8.5866 0.23438-12.338 0.23438-1.7025 0-3.3527-0.23438-5.1152-0.23438zm-345.11 1.418c11.088 0 18.08 10.482 18.08 21.262 0 10.956-6.6531 17.885-14.953 17.885-11.258 0-18.135-10.602-18.135-21.555 0-9.3612 5.4566-17.592 15.008-17.592zm260.81 0c11.086 0 18.082 10.482 18.082 21.262 0 10.956-6.6538 17.885-14.955 17.885-11.26 0-18.137-10.602-18.137-21.555 0-9.3612 5.4585-17.592 15.01-17.592zm98.289 0.05859c10.8 0.0625 19.213 7.5237 19.213 20.67 0 13.68-7.6743 18.182-15.748 18.182-2.5588 0-6.8784-0.71157-8.7559-2.6641-0.51125-0.535-0.34179-3.3774-0.34179-4.3262v-28.129c0-2.785 0.23031-3.7324 5.6328-3.7324zm-62.432 0.47656c5.57 0 10.859 2.4273 10.859 9.6523 0 7.3412-5.4579 8.4102-7.9004 8.4102-2.6738 0-6.1973 0.29688-6.1973-0.82812v-15.047c0-2.3088 1.192-2.1875 3.2383-2.1875zm105.71 4.9727c0.1489 0 0.29171 0.17953 0.43359 0.53516l5.5684 14.271c0.285 0.76875 0.345 1.1816-0.90625 1.1816h-11.256c-0.74375 0-1.1391-0.23375-0.74414-1.0625l6.4316-14.391c0.16875-0.35563 0.32375-0.53516 0.47266-0.53516z" transform="matrix(.8 0 0 -.8 0 94)" fill="#006747"/><path d="m134.79 13.762c-16.816 0-28.309 10.41-28.309 24.668 0 13.015 8.4786 17.847 20.84 22.557 23.132 8.8012 32.188 10.412 32.188 20.947 0 9.9162-8.6251 15.867-19.83 15.867-15.948 0-24.862-11.281-29.461-23.18-0.57875-1.6112-0.86406-2.7246-3.1641-2.7246-3.5888 0-2.1509 3.5944-1.7246 5.3281l4.459 16.979c0.7175 2.9725 0.57547 3.9684 4.168 4.7109 8.3312 1.6112 15.665 4.5879 24.432 4.5879 18.822 0 32.041-11.031 32.041-27.268 0-15.741-9.4848-21.075-24.854-26.898-19.266-7.3125-27.162-8.9267-27.162-17.23 0-8.3025 6.4655-13.014 15.949-13.014 24.716 0 26.871 23.055 30.176 23.055 3.1675 0 3.5956-1.4848 3.3106-4.2148l-1.584-16.607c-0.28749-2.8512 0.14149-4.7109-2.0098-4.7109-1.8725 0-5.4601 1.9824-7.3301 1.9824-4.31 0-10.35-4.834-22.135-4.834zm39.396 0.53516c-1.9038 0-2.9941 1.0055-2.9941 2.1367 0 5.0288 15.357 1.0071 15.357 12.318v58.826c0 15.336-10.33 8.5424-10.33 14.326 0 0.76 0.81649 1.3828 2.584 1.3828 7.4738 0 13.187-0.50195 17.391-0.50195 5.9812 0 11.011 0.50195 16.174 0.50195 3.4012 0 6.2539 0.50273 6.2539-2.0098 0-3.3925-15.354-0.25046-15.354-14.199v-18.607c0-7.2875-0.55117-8.7969 5.7051-8.7969h10.051c14.136 0 10.334 13.324 14.684 13.324 3.26 0 2.4402-4.5259 2.3027-6.1621l-0.94336-22.371c-0.14125-3.3938-1.6365-3.1445-2.584-3.1445-2.72 0-3.1257 11.566-14.814 11.566h-8.5625c-5.8375 0-5.8379-0.88266-5.8379-6.2852v-17.596c0-8.6775 0.54492-8.8008 16.982-8.8008 26.229 0 15.63 14.707 22.018 14.707 3.125 0 2.4424-4.1482 2.3086-5.7832l-0.56-12.439c0-1.1362-0.9475-2.3926-2.7188-2.3926-11.955 0-21.334 0.50391-30.982 0.50391-20.798 0-30.581-0.50391-36.145-0.50391zm-95.162 0.52734c-0.93024-0.0071-1.6875 0.21484-1.6875 1.4531 0 4.4638 14.037 0.62195 14.037 14.877v24.543c0 20.945-2.9639 40.527-25.691 40.527-20.436 0-25.008-15.743-25.008-34.705v-26.896c0-20.328 9.5957-13.761 9.5957-17.973 0-0.745-0.23211-1.7363-1.2559-1.7363-2.1712 0-10.28 0.49805-16.104 0.49805-5.71 0-14.272-0.49805-15.76-0.49805-0.90875 0-2.3965 0.37188-2.3965 1.9844 0 4.7112 11.875 0.7443 11.875 11.404v40.408c0 24.046 11.424 34.83 32.777 34.83 31.512 0 38.021-20.948 38.021-46.109v-28.014c0-14.008 7.9961-9.5444 7.9961-12.891 0-1.3638-0.68359-1.6133-2.0586-1.6133-5.7075 0.24875-9.2451 0.49805-13.018 0.49805-3.1988 0-6.2823-0.2493-9.5898-0.49805-0.55641 0-1.1762-0.08556-1.7344-0.08984zm198.27 43.521v1.7109h476.48v-1.7109h-476.48z" transform="matrix(.8 0 0 -.8 0 94)" fill="#cfc493"/></g></g></svg>
