<svg xmlns="http://www.w3.org/2000/svg" xml:space="preserve" width="190.42" height="30.979" viewBox="0 0 190.425 30.979"><path fill="#006747" d="M.896 1.106V29.99h65.15V1.106zm134.388.038c-1.704 0-3.287.903-3.287 2.782 0 3.865 6.01 2.266 6.01 5.123 0 1.555-1.377 2.34-2.782 2.34-2.044 0-2.932-1.54-3.11-2.221-.073-.311-.073-.488-.281-.488-.148 0-.222.162-.163.458l.37 1.91c.06.267 1.406.815 2.502.815 3.36 0 4.235-1.866 4.235-3.11 0-4.086-6.012-2.458-6.012-5.24 0-1.363 1.244-1.926 2.414-1.926 1.303 0 2.384.652 2.828 1.926.044.133.148.443.31.443.148 0 .179-.103.163-.222l-.221-2.013c-.016-.163-.09-.207-.178-.207-.148 0-.179.162-.312.162-.207 0-.695-.533-2.487-.533zm40.89 0c-3.035 0-5.434 2.235-5.434 5.315 0 3.124 1.97 5.404 5.182 5.404 3.302 0 5.597-2.147 5.597-5.479 0-3.064-2.325-5.24-5.345-5.24zm-51.123.126-.219.007c-.77 0-1.614.059-2.472.059-.756 0-.682-.059-.948-.059-.178 0-.297.088-.297.177 0 .504 1.273-.104 1.273 1.318v7.536c0 1.126-1.08.918-1.08 1.288 0 .09.06.163.149.163.561 0 1.124-.06 1.687-.06 1.229 0 1.569.06 1.702.06.12 0 .252.03.252-.118 0-.504-1.54-.045-1.54-1.318V7.199c0-.148-.088-.414.386-.414 1.658 0 1.435-.045 1.969.784l1.643 2.591c.563.844 1.14 1.599 2.221 1.599.133 0 .962 0 .962-.177 0-.356-.725.192-1.792-1.437L126.475 6.4c1.036-.415 1.866-1.407 1.866-2.562 0-2.5-2.505-2.586-3.29-2.568m-51.307.005-.106.002c-.459 0-.932.059-1.406.059-.4 0-.77-.059-1.155-.059-.074 0-.326.045-.326.148 0 .474 1.2.118 1.2.992v4.99c0 2.28.74 4.456 4.633 4.456 4.31 0 4.131-3.657 4.131-4.383V2.891c0-1.362.874-1.036.874-1.451 0-.09-.119-.162-.193-.162-.266 0-.533.058-.814.058-.578 0-1.155-.058-1.732-.058-.045 0-.148.073-.148.147 0 .563 1.377-.06 1.377 1.45v4.797c0 1.748-.637 3.584-3.42 3.584-1.999 0-3.54-1.081-3.54-3.45V2.49c0-1.065.993-.651.993-1.065 0-.133-.225-.15-.369-.15zm9.096.002c-.074 0-.222.06-.222.148 0 .548 1.791-.311 1.791 2.768v5.463c0 2.073-1.303 1.422-1.303 1.94 0 .075.015.163.193.163.103 0 .873-.06 1.391-.06.726 0 1.14.06 1.496.06.148 0 .163-.118.163-.193 0-.4-1.303.12-1.303-1.213V4.297c0-.296.044-.34.104-.34.103 0 .28.25.31.28l6.367 7.167c.31.34.459.414.562.414.12 0 .133-.208.133-.637V2.61c0-1.08.874-.813.874-1.2 0-.087-.06-.132-.148-.132-.355 0-.992.059-1.495.059-.474 0-.903-.059-1.348-.059-.088 0-.162.045-.162.148 0 .488 1.643-.075 1.643 1.865V9.48c0 .118-.015.163-.044.163-.03 0-.09-.059-.178-.163l-7.062-7.862c-.09-.103-.223-.34-.386-.34-.222 0-.459.06-.68.06-.237 0-.46-.06-.696-.06zm12.155 0c-.118 0-.148.03-.148.163 0 .325 1.184.03 1.199 1.11v7.58c0 1.466-1.154.977-1.154 1.407 0 .148.044.222.31.222.208 0 .518-.06 1.421-.06.637 0 1.273.06 1.614.06.252 0 .297-.044.297-.149 0-.443-1.318-.103-1.318-1.109V2.549c0-1.11 1.066-.77 1.066-1.124 0-.119-.045-.148-.282-.148-.458 0-.917.059-1.376.059-.548 0-1.08-.059-1.629-.059zm5.056 0c-.133 0-.208.074-.208.207 0 .326.77.045 1.14.933l3.657 8.647c.134.31.311.932.548.932.222 0 .326-.489.489-.86l3.687-8.719c.415-.992.83-.621.83-.947 0-.134-.09-.193-.253-.193-.206 0-.429.059-1.14.059-.325 0-.65-.059-.977-.059-.148 0-.22.045-.22.193 0 .34.946.058.946.739.06.312-.119.786-.208 1.007l-2.575 6.351c-.074.178-.119.415-.267.415-.163 0-.266-.34-.592-1.125l-2.59-6.1a1.6 1.6 0 0 1-.133-.577c0-.533.622-.548.607-.755 0-.089-.118-.147-.207-.147-.207 0-.77.058-1.17.058-.444 0-.903-.058-1.362-.058zm12.317 0c-.43 0-.519.06-.519.177 0 .178.326.208.445.237.799.119.798.83.798 1.496v6.75c0 .697-.028 1.112-.413 1.289-.474.237-.622.208-.652.384 0 .12.09.149.223.149.591 0 1.213-.044 1.806-.06 1.124-.028 2.25.06 3.375.06.652 0 .977.03 1.45-.503.356-.385.741-.903.741-1.436 0-.03-.014-.178-.119-.178-.192 0-.695 1.525-4.115 1.525-1.243 0-1.125-.355-1.125-1.23V7.215c0-.222-.045-.474.266-.474h2.191c1.244 0 .74 1.302 1.2 1.302.103 0 .163-.058.163-.192 0-.4-.03-.784-.03-1.17 0-.474.03-.976.03-1.494 0-.12-.044-.282-.163-.282-.355 0 .044 1.184-1.495 1.184h-1.6c-.593 0-.562 0-.562-.503V2.83c0-.992-.03-.931 1.391-.931.593 0 2.132-.09 2.516.413.238.342 0 1.053.357 1.053.089 0 .295-.12.295-1.763 0-.177-.03-.325-.148-.325-.459 0-1.82.059-2.117.059-.622 0-1.391-.059-4.19-.059zm28.002 0c-.119 0-.148.03-.148.163 0 .325 1.185.03 1.2 1.11v7.58c0 1.466-1.155.977-1.155 1.407 0 .148.045.222.31.222.208 0 .519-.06 1.422-.06.637 0 1.273.06 1.614.06.252 0 .296-.044.296-.149 0-.443-1.317-.103-1.317-1.109V2.549c0-1.11 1.065-.77 1.065-1.124 0-.119-.044-.148-.281-.148-.458 0-.918.059-1.377.059-.547 0-1.081-.059-1.629-.059zm4.738 0c-.266 0-.252.4-.267.578l-.162 1.435c0 .075.06.178.148.178.192 0 .207-.192.252-.34.266-.816.295-1.037 1.214-1.037h2.413c.207.015.149.578.149.681v7.698c0 .889-1.17.741-1.17 1.096 0 .15.044.193.177.193.09 0 .37-.06 2.028-.06.43 0 .844.06 1.2.06.148 0 .133-.133.133-.177 0-.46-1.2.029-1.2-1.215v-7.55c0-.785-.073-.726.593-.726h2.117c1.51 0 .71 1.125 1.258 1.125.193 0 .178-.177.163-.325l-.07-1.184c-.016-.342-.089-.43-.43-.43-.296 0-1.658.059-4.338.059-1.91 0-3.05-.059-4.204-.059zm10.547 0c-.103 0-.192.118-.192.222 0 .252.725.074 1.11.71l2.473 3.954c.118.177.34.474.34.754V10.5c0 1.05-1.14.666-1.14 1.08 0 .163.09.178.222.178.134 0 .666-.06 1.333-.06.548 0 1.407.06 1.63.06.206 0 .34-.015.34-.149 0-.458-1.215-.044-1.215-1.332V6.651c0-.222.119-.295.356-.666l2.077-3.228c.237-.37.43-.785.829-1.022.103-.059.354-.118.354-.281 0-.073-.073-.177-.162-.177-.43 0-.859.059-1.288.059-.356 0-.725-.059-1.081-.059-.163 0-.31.029-.31.221 0 .356 1.11.045 1.11.77 0 .4-.208.652-.312.815l-1.525 2.473c-.117.192-.207.296-.28.296-.09 0-.178-.09-.297-.267l-1.792-2.858c-.089-.133-.266-.37-.266-.607 0-.43.695-.444.695-.695 0-.134-.177-.148-.281-.148-.148 0-.547.059-1.035.059-1.008 0-1.29-.059-1.689-.059zm27.048 0c-.43 0-.518.06-.518.177 0 .178.326.208.444.237.799.119.799.83.799 1.496v6.825c0 1.643-1.081 1.214-1.081 1.629 0 .03.03.133.15.133.265 0 .783-.074 1.538-.074 1.377 0 1.525.074 1.629.074s.326 0 .326-.208c0-.34-1.392.044-1.392-1.361v-2.99c0-.223-.075-.475.267-.475h2.191c1.243 0 .74 1.303 1.199 1.303.103 0 .163-.06.163-.193 0-.4-.03-.784-.03-1.17 0-.473.03-.976.03-1.494 0-.12-.045-.282-.163-.282-.356 0 .045 1.184-1.496 1.184h-1.598c-.593 0-.563 0-.563-.503V2.831c0-.993-.03-.932 1.392-.932.592 0 2.132-.09 2.516.413.237.342 0 1.053.356 1.053.09 0 .296-.12.296-1.763 0-.177-.03-.325-.148-.325-.46 0-1.822.059-2.117.059-.622 0-1.392-.059-4.19-.059zm-6.973.355c2.888 0 4.708 2.62 4.708 5.315 0 2.74-1.732 4.472-3.894 4.472-2.932 0-4.722-2.651-4.722-5.39 0-2.34 1.421-4.397 3.908-4.397m-51.325.134c1.45 0 2.828.606 2.828 2.413 0 1.835-1.421 2.102-2.058 2.102-.696 0-1.613.075-1.613-.207V2.313c0-.578.31-.547.843-.547zm59.655 17.497c-.184 0-.227.237-1.065 2.102l-3.397 7.55c-.37.845-1.038.593-1.038.903 0 .09.043.163.128.163.37 0 .753-.06 1.137-.06.398 0 .796.06 1.193.06.186 0 .385.044.385-.222 0-.384-1.01.06-1.01-.977 0-.193.057-.415.1-.518l.91-2.073c.141-.31.397-.31.668-.31h3.127c.397 0 .483.221.625.562l.455 1.214c.143.4.44 1.08.44 1.406 0 .563-.853.415-.853.77 0 .148.229.148.313.148.384 0 .768-.06 1.152-.06.583 0 1.164.06 1.747.06.1 0 .2 0 .2-.133 0-.37-.824-.044-1.25-.726-.327-.518-.5-1.14-.711-1.687l-2.955-7.626c-.044-.118-.143-.547-.3-.547zm-110.04.103c-1.635 0-3.155.903-3.155 2.783 0 3.865 5.77 2.266 5.77 5.122 0 1.555-1.32 2.34-2.672 2.34-1.961 0-2.814-1.54-2.984-2.22-.072-.312-.072-.49-.27-.49-.143 0-.214.163-.157.46l.355 1.91c.057.266 1.35.814 2.403.814 3.226 0 4.065-1.866 4.065-3.11 0-4.086-5.771-2.457-5.771-5.24 0-1.363 1.194-1.925 2.317-1.925 1.25 0 2.288.651 2.714 1.925.043.134.142.444.299.444.141 0 .17-.104.156-.222l-.213-2.014c-.014-.162-.085-.207-.17-.207-.143 0-.171.163-.299.163-.199 0-.669-.533-2.388-.533zm9.523 0c-2.914 0-5.216 2.235-5.216 5.315 0 3.124 1.89 5.404 4.975 5.404 3.169 0 5.372-2.147 5.372-5.478 0-3.064-2.231-5.24-5.13-5.24m65.203 0c-2.914 0-5.216 2.235-5.216 5.315 0 3.124 1.89 5.404 4.975 5.404 3.17 0 5.373-2.147 5.373-5.478 0-3.064-2.233-5.24-5.132-5.24m9.161.126-.21.007c-.74 0-1.55.06-2.374.06-.724 0-.653-.06-.91-.06-.17 0-.283.088-.283.177 0 .504 1.222-.103 1.222 1.318v7.536c0 1.126-1.039.918-1.039 1.288 0 .09.057.163.143.163.54 0 1.08-.059 1.62-.059 1.18 0 1.507.059 1.635.059.114 0 .242.03.242-.118 0-.504-1.478-.044-1.478-1.318v-3.124c0-.148-.086-.414.37-.414 1.59 0 1.378-.045 1.89.784l1.577 2.592c.54.844 1.094 1.598 2.132 1.598.128 0 .924 0 .924-.177 0-.356-.697.193-1.72-1.437l-2.374-3.744c.996-.415 1.79-1.408 1.79-2.562 0-2.502-2.404-2.587-3.157-2.569zm-65.877.006-.101.001c-.44 0-.896.06-1.35.06-.384 0-.74-.06-1.11-.06-.07 0-.312.045-.312.148 0 .474 1.151.118 1.151.992v4.99c0 2.28.711 4.456 4.45 4.456 4.136 0 3.964-3.657 3.964-4.383v-4.589c0-1.362.839-1.036.839-1.45 0-.09-.114-.163-.185-.163-.256 0-.512.058-.782.058-.554 0-1.108-.058-1.663-.058-.042 0-.142.073-.142.148 0 .562 1.322-.06 1.322 1.45v4.797c0 1.747-.611 3.583-3.283 3.583-1.919 0-3.397-1.08-3.397-3.45v-5.315c0-1.066.952-.652.952-1.066 0-.133-.216-.15-.354-.15zm8.611.001c-.256 0-.241.4-.256.578l-.156 1.435c0 .075.057.178.142.178.185 0 .2-.192.242-.34.256-.815.284-1.037 1.165-1.037h2.317c.199.015.142.578.142.681v7.699c0 .889-1.123.74-1.123 1.096 0 .148.043.192.171.192.085 0 .355-.06 1.947-.06.412 0 .81.06 1.152.06.142 0 .128-.133.128-.177 0-.46-1.152.028-1.152-1.215v-7.55c0-.785-.07-.725.569-.725h2.032c1.45 0 .683 1.124 1.208 1.124.185 0 .17-.177.156-.325l-.07-1.184c-.015-.342-.086-.43-.412-.43-.285 0-1.593.06-4.165.06-1.834 0-2.928-.06-4.037-.06m9.523 0c-.113 0-.227.03-.227.163 0 .326 1.222.03 1.236 1.11v7.58c0 1.466-1.108.978-1.108 1.407 0 .148.042.222.156.222.056 0 .214-.06 1.223-.06.752 0 1.79.06 1.975.06.128 0 .227-.044.227-.118 0-.46-1.35-.134-1.35-1.14v-3.687c0-.162 0-.251.17-.251h5.245c.17 0 .114.133.114.37v3.553c0 .932-.995.726-.995 1.08 0 .237.213.193.341.193.27 0 .668-.06 1.578-.06.512 0 .952.06 1.336.06.1 0 .156-.133.156-.177 0-.37-1.293-.103-1.293-1.184V20.77c0-1.02.952-.77.952-1.035 0-.089-.029-.237-.398-.237-.284 0-.497.059-1.023.059-.27 0-1.009-.059-1.478-.059-.214 0-.242.074-.242.163 0 .34 1.066.088 1.066 1.11v3.035c0 .06.029.43-.114.43h-5.202c-.213 0-.213-.06-.213-.267v-3.199c0-1.11 1.023-.828 1.023-1.124 0-.06-.028-.148-.27-.148-.44 0-.88.059-1.32.059-.527 0-1.04-.059-1.565-.059zm18.212 0c-.411 0-.497.06-.497.177 0 .178.313.208.427.237.768.12.768.83.768 1.496v6.825c0 1.643-1.038 1.214-1.038 1.629 0 .03.028.134.143.134.255 0 .752-.075 1.477-.075 1.322 0 1.464.075 1.563.075.1 0 .313 0 .313-.208 0-.341-1.336.044-1.336-1.362v-2.99c0-.223-.071-.475.256-.475h2.104c1.193 0 .71 1.303 1.151 1.303.1 0 .156-.059.156-.193 0-.399-.028-.784-.028-1.17 0-.473.028-.976.028-1.494 0-.12-.042-.282-.156-.282-.341 0 .042 1.185-1.436 1.185h-1.535c-.568 0-.54 0-.54-.504v-2.754c0-.992-.028-.932 1.336-.932.569 0 2.047-.089 2.416.414.227.341 0 1.052.342 1.052.085 0 .284-.12.284-1.763 0-.177-.028-.325-.143-.325-.44 0-1.747.059-2.032.059-.597 0-1.335-.059-4.023-.059m7.435 0c-.184 0-.284.03-.284.193 0 .296 1.194.192 1.194.962v7.506c0 .696-.029 1.111-.398 1.288-.455.237-.597.208-.625.384 0 .12.085.149.212.149.57 0 1.166-.044 1.734-.06 1.081-.028 2.162.06 3.242.06.625 0 .938.03 1.393-.503.34-.385.71-.903.71-1.436 0-.03-.014-.177-.114-.177-.185 0-.667 1.524-3.95 1.524-1.195 0-1.082-.355-1.082-1.229v-7.196c0-1.288 1.038-.917 1.038-1.258 0-.178-.084-.207-.27-.207-.213 0-.554.06-1.364.06-.697 0-1.138-.06-1.436-.06m28.92 0c-.113 0-.142.03-.142.163 0 .326 1.138.03 1.153 1.11v7.58c0 1.466-1.11.978-1.11 1.407 0 .148.043.222.299.222.199 0 .497-.06 1.364-.06.612 0 1.222.06 1.55.06.241 0 .284-.044.284-.149 0-.443-1.265-.103-1.265-1.109v-7.952c0-1.11 1.023-.769 1.023-1.124 0-.119-.043-.148-.27-.148-.441 0-.881.059-1.322.059-.526 0-1.037-.059-1.564-.059zm4.663 0c-.086 0-.2.045-.2.148 0 .4 1.166-.074 1.166 1.436v7.373c0 1.407-1.01 1.036-1.01 1.376 0 .09.03.149.143.149.1 0 1.464-.06 1.592-.06.724 0 1.45.06 2.175.06 3.937 0 5.486-2.354 5.486-5.76 0-2.738-2.473-4.722-4.989-4.722-1.223 0-2.147.059-3.085.059-.425 0-.838-.059-1.278-.059zm-86.278.355c2.772 0 4.52 2.62 4.52 5.315 0 2.74-1.663 4.472-3.738 4.472-2.814 0-4.534-2.65-4.534-5.389 0-2.34 1.364-4.398 3.752-4.398m65.203 0c2.771 0 4.52 2.62 4.52 5.315 0 2.74-1.663 4.472-3.738 4.472-2.815 0-4.535-2.65-4.535-5.389 0-2.34 1.365-4.398 3.753-4.398m24.572.015c2.7.015 4.803 1.88 4.803 5.167 0 3.42-1.918 4.546-3.937 4.546-.64 0-1.72-.178-2.189-.666-.127-.134-.085-.845-.085-1.082v-7.032c0-.696.057-.933 1.408-.933m-15.608.119c1.393 0 2.715.607 2.715 2.413 0 1.835-1.365 2.102-1.975 2.102-.669 0-1.55.075-1.55-.207v-3.761c0-.578.298-.547.81-.547zm26.428 1.243q.055 0 .108.134l1.392 3.567c.071.193.086.296-.227.296h-2.814c-.185 0-.284-.059-.186-.266l1.608-3.597q.063-.135.119-.134z"/><path fill="#cfc493" d="M34.575 4.151c-4.204 0-7.077 2.602-7.077 6.167 0 3.254 2.12 4.462 5.21 5.64 5.783 2.2 8.047 2.602 8.047 5.236 0 2.479-2.157 3.967-4.958 3.967-3.987 0-6.215-2.82-7.365-5.795-.145-.403-.216-.681-.791-.681-.897 0-.538.898-.431 1.332l1.115 4.244c.179.743.143.992 1.042 1.178 2.082.403 3.916 1.147 6.108 1.147 4.705 0 8.01-2.758 8.01-6.817 0-3.935-2.371-5.269-6.214-6.724-4.816-1.829-6.79-2.232-6.79-4.308s1.616-3.253 3.987-3.253c6.18 0 6.718 5.763 7.544 5.763.792 0 .899-.37.828-1.053l-.396-4.152c-.072-.713.035-1.178-.503-1.178-.468 0-1.365.496-1.832.496-1.078 0-2.588-1.209-5.534-1.209zm9.849.134c-.476 0-.749.251-.749.534 0 1.257 3.84.252 3.84 3.08v14.706c0 3.834-2.583 2.136-2.583 3.581 0 .19.204.346.646.346 1.869 0 3.297-.125 4.348-.125 1.495 0 2.753.125 4.043.125.85 0 1.564.126 1.564-.502 0-.848-3.839-.063-3.839-3.55v-4.652c0-1.822-.137-2.199 1.427-2.199h2.512c3.534 0 2.584 3.331 3.671 3.331.815 0 .61-1.131.576-1.54l-.236-5.593c-.035-.849-.409-.786-.646-.786-.68 0-.781 2.891-3.703 2.891h-2.14c-1.46 0-1.46-.22-1.46-1.571v-4.4c0-2.169.136-2.2 4.245-2.2 6.557 0 3.908 3.677 5.505 3.677.781 0 .61-1.037.577-1.445l-.14-3.11c0-.284-.237-.598-.68-.598-2.989 0-5.333.126-7.745.126-5.2 0-7.646-.126-9.037-.126zm-23.79.132c-.233-.002-.422.053-.422.363 0 1.116 3.509.155 3.509 3.72v6.135c0 5.236-.741 10.132-6.423 10.132-5.109 0-6.252-3.936-6.252-8.677V9.366c0-5.082 2.399-3.44 2.399-4.493 0-.186-.058-.434-.314-.434-.543 0-2.57.125-4.026.125-1.427 0-3.568-.125-3.94-.125-.227 0-.6.093-.6.496 0 1.178 2.97.186 2.97 2.851v10.102c0 6.012 2.856 8.708 8.194 8.708 7.878 0 9.505-5.237 9.505-11.528V8.065c0-3.502 2-2.386 2-3.223 0-.34-.172-.403-.515-.403-1.427.062-2.312.124-3.255.124-.8 0-1.57-.062-2.397-.124-.14 0-.294-.022-.434-.023zM70.2 15.297v.428h119.12v-.428z"/></svg>